<svg id="svg" version="1.1" xmlns="http://www.w3.org/2000/svg" xmlns:xlink="http://www.w3.org/1999/xlink" width="400" height="400" viewBox="0, 0, 400,400"><g id="svgg"><path id="path0" d="M57.422 128.945 L 57.422 221.952 128.798 293.191 L 200.173 364.431 232.216 332.511 C 249.839 314.955,281.880 282.952,303.418 261.394 L 342.578 222.197 342.578 129.067 L 342.578 35.938 200.000 35.938 L 57.422 35.938 57.422 128.945 M264.160 44.128 L 334.766 44.141 334.766 131.565 L 334.766 218.989 282.107 271.701 C 237.862 315.993,200.503 353.125,200.188 353.125 C 200.145 353.125,169.939 322.959,133.063 286.090 L 66.016 219.056 66.016 131.663 C 66.016 83.597,66.089 44.198,66.178 44.108 C 66.268 44.019,94.964 43.984,129.948 44.031 C 164.932 44.077,225.327 44.121,264.160 44.128 M72.028 133.691 L 72.303 217.383 91.523 236.619 C 102.093 247.199,110.875 255.856,111.038 255.857 C 111.201 255.859,111.332 234.985,111.328 209.473 C 111.325 183.960,111.323 162.736,111.325 162.308 C 111.327 161.768,114.290 164.489,120.999 171.194 C 131.642 181.831,131.111 181.410,131.471 179.494 C 131.810 177.684,128.792 174.055,118.655 164.080 L 111.328 156.871 111.328 153.240 C 111.328 151.243,111.436 149.609,111.569 149.609 C 111.994 149.609,133.594 171.422,133.594 171.851 C 133.594 172.622,134.318 172.272,135.156 171.095 L 135.989 169.924 133.666 167.091 C 132.389 165.533,126.752 159.724,121.140 154.183 L 110.938 144.108 110.938 140.413 C 110.938 135.915,111.195 135.802,114.028 139.059 C 115.147 140.346,121.143 146.512,127.351 152.762 L 138.639 164.124 139.510 163.312 C 139.989 162.865,140.539 162.500,140.731 162.500 C 141.561 162.500,137.699 158.344,124.929 145.496 L 111.328 131.811 111.328 128.406 C 111.328 126.169,111.477 125.000,111.762 125.000 C 112.001 125.000,119.428 132.206,128.266 141.014 L 144.336 157.027 145.219 155.955 C 146.490 154.412,147.369 155.441,128.809 136.748 L 111.719 119.536 111.719 84.768 L 111.719 50.000 91.736 50.000 L 71.754 50.000 72.028 133.691 M150.781 98.979 L 150.781 147.838 152.626 145.696 C 153.641 144.518,156.146 141.797,158.192 139.648 C 160.239 137.500,165.185 132.227,169.183 127.930 C 173.180 123.633,179.650 116.689,183.560 112.500 L 190.668 104.883 190.449 96.875 C 190.328 92.471,190.224 80.139,190.218 69.471 L 190.208 50.075 170.494 50.098 L 150.781 50.120 150.781 98.979 M210.547 60.284 L 210.547 70.568 214.160 72.380 C 225.644 78.139,236.677 92.002,240.033 104.889 C 242.264 113.454,241.949 125.020,239.188 135.890 C 239.003 136.619,239.069 136.745,239.496 136.476 C 239.795 136.287,241.533 135.140,243.359 133.926 C 245.186 132.713,247.337 131.407,248.141 131.024 L 249.602 130.327 249.703 90.164 L 249.805 50.000 230.176 50.000 L 210.547 50.000 210.547 60.284 M289.104 117.027 C 289.128 153.961,289.268 188.574,289.416 193.945 C 289.745 205.898,290.482 204.144,281.445 212.900 C 277.363 216.855,273.713 220.705,273.334 221.456 C 272.196 223.709,270.635 227.796,270.836 227.998 C 271.046 228.207,284.005 215.414,286.831 212.207 C 289.290 209.417,289.453 209.517,289.453 213.805 L 289.453 217.453 270.020 236.986 L 250.586 256.518 245.606 259.546 C 236.075 265.339,224.829 269.339,213.672 270.904 C 212.705 271.040,211.606 271.238,211.230 271.344 C 210.587 271.526,210.547 273.387,210.547 303.368 L 210.547 335.199 228.283 317.306 C 238.038 307.466,246.995 298.623,248.186 297.656 L 250.353 295.898 250.372 291.632 L 250.391 287.365 254.029 283.624 C 256.030 281.566,262.754 274.697,268.971 268.359 C 275.188 262.021,282.280 254.769,284.730 252.243 C 287.181 249.717,289.245 247.708,289.315 247.779 C 289.386 247.849,289.578 249.637,289.741 251.750 L 290.039 255.593 309.473 236.348 L 328.906 217.103 328.906 133.747 L 328.906 50.391 321.582 50.390 C 317.554 50.390,308.589 50.273,301.660 50.132 L 289.063 49.874 289.104 117.027 M204.748 76.062 C 204.026 76.199,203.880 76.416,204.061 77.083 C 204.601 79.082,204.770 87.859,204.332 91.134 C 203.397 98.117,201.529 101.698,194.755 109.496 C 192.924 111.604,191.034 113.889,190.556 114.575 C 190.078 115.260,186.338 119.338,182.246 123.638 C 171.696 134.721,159.572 147.923,153.015 155.469 C 121.974 191.188,130.852 239.438,172.070 259.023 C 181.892 263.690,185.212 263.807,181.171 259.344 C 174.752 252.253,173.872 251.033,170.916 245.117 C 164.582 232.441,163.893 221.781,168.738 211.426 C 170.142 208.425,170.703 208.321,170.703 211.061 C 170.703 220.567,176.656 228.516,183.774 228.516 C 190.444 228.516,193.226 221.958,189.605 214.769 C 183.308 202.265,184.926 188.701,194.141 176.757 C 197.146 172.862,197.135 172.860,197.141 177.440 C 197.152 184.971,199.636 190.111,208.795 201.557 C 214.943 209.241,218.008 214.168,219.492 218.755 C 224.263 233.507,220.640 250.049,209.845 262.793 L 208.108 264.844 209.289 264.844 C 212.821 264.844,223.964 262.380,229.701 260.330 C 254.434 251.494,272.453 224.115,270.278 198.676 C 269.331 187.611,266.025 179.169,257.745 166.676 C 250.724 156.082,249.805 153.558,249.805 144.876 L 249.805 138.775 247.266 139.991 C 240.394 143.280,238.207 144.904,236.420 148.047 C 232.079 155.683,230.702 164.236,232.565 171.997 C 234.115 178.459,231.902 181.431,226.029 180.769 C 215.239 179.553,215.604 159.930,226.754 141.822 C 235.990 126.822,236.908 112.538,229.581 97.852 C 224.183 87.033,210.993 74.762,205.916 75.834 C 205.777 75.864,205.252 75.966,204.748 76.062 M289.063 227.283 L 289.063 231.128 286.035 233.688 C 284.370 235.096,279.593 239.738,275.419 244.003 C 259.521 260.248,250.645 269.141,250.328 269.141 C 250.148 269.141,250.000 267.476,250.000 265.442 L 250.000 261.744 269.238 242.603 C 279.819 232.075,288.608 223.456,288.770 223.450 C 288.931 223.443,289.063 225.168,289.063 227.283 M289.526 234.008 C 289.602 234.236,289.522 236.357,289.349 238.721 L 289.034 243.020 274.862 257.350 C 267.068 265.231,258.516 273.965,255.857 276.758 C 253.197 279.551,250.880 281.895,250.706 281.966 C 250.533 282.038,250.391 280.290,250.391 278.082 L 250.391 274.068 266.785 257.769 C 283.631 241.021,287.891 236.554,287.891 235.634 C 287.891 234.309,289.194 233.013,289.526 234.008 M151.172 275.062 L 151.172 296.307 170.605 315.634 L 190.039 334.961 190.150 304.297 C 190.276 269.531,190.366 271.213,188.364 270.890 C 177.050 269.066,164.761 263.871,155.787 257.119 C 154.215 255.936,152.534 254.710,152.051 254.393 L 151.172 253.816 151.172 275.062 " stroke="none" fill="#cb1515" fill-rule="evenodd"></path><path id="path1" d="M0.000 200.000 L 0.000 400.000 200.000 400.000 L 400.000 400.000 400.000 200.000 L 400.000 0.000 200.000 0.000 L 0.000 0.000 0.000 200.000 M342.969 128.997 L 342.969 222.057 315.918 249.126 C 301.040 264.014,281.517 283.529,272.533 292.492 C 263.549 301.455,243.627 321.373,228.261 336.753 L 200.323 364.716 152.994 317.495 C 126.962 291.523,94.810 259.468,81.543 246.262 L 57.422 222.251 57.422 129.094 L 57.422 35.938 200.195 35.938 L 342.969 35.938 342.969 128.997 M66.309 87.988 C 66.255 112.104,66.273 151.523,66.350 175.586 L 66.489 219.336 129.826 282.813 C 164.661 317.725,194.733 347.836,196.652 349.727 L 200.140 353.164 212.472 340.928 C 219.255 334.198,229.206 324.390,234.584 319.131 C 239.963 313.873,264.688 289.180,289.528 264.258 L 334.693 218.945 334.712 154.688 C 334.723 119.346,334.630 80.015,334.506 67.285 L 334.281 44.141 200.344 44.141 L 66.406 44.141 66.309 87.988 M190.571 77.514 L 190.691 105.089 184.310 111.846 C 174.220 122.531,154.179 144.155,152.502 146.167 C 150.735 148.287,150.295 148.468,150.540 146.973 C 150.638 146.382,150.731 124.323,150.749 97.953 L 150.781 50.007 170.410 49.906 C 181.206 49.850,190.132 49.835,190.245 49.871 C 190.358 49.908,190.505 62.347,190.571 77.514 M111.720 84.668 L 111.720 119.336 129.146 136.792 L 146.572 154.249 145.678 155.542 C 145.186 156.254,144.734 156.902,144.673 156.983 C 144.612 157.065,137.234 149.907,128.279 141.078 C 119.323 132.248,111.846 125.117,111.662 125.230 C 111.478 125.344,111.328 126.790,111.328 128.443 L 111.328 131.450 124.029 144.284 C 131.014 151.343,137.723 158.251,138.938 159.634 L 141.146 162.149 139.821 163.359 L 138.496 164.570 135.368 161.093 C 131.972 157.319,128.886 154.184,124.023 149.571 C 122.305 147.940,118.817 144.380,116.273 141.661 C 110.924 135.943,110.975 135.953,111.223 140.716 L 111.412 144.336 118.342 151.172 C 126.389 159.108,134.221 167.263,135.412 168.945 L 136.242 170.117 135.112 171.472 L 133.981 172.826 133.338 171.862 C 132.513 170.626,112.033 150.000,111.631 150.000 C 111.464 150.000,111.328 151.494,111.328 153.319 L 111.328 156.638 116.839 162.010 C 129.615 174.465,133.131 179.092,131.264 180.995 C 131.085 181.177,126.922 177.310,122.011 172.402 C 117.101 167.493,112.662 163.125,112.148 162.695 L 111.213 161.914 111.419 194.727 C 111.532 212.773,111.514 234.043,111.379 241.992 L 111.133 256.444 91.569 236.828 L 72.005 217.212 71.744 133.606 L 71.482 50.000 91.601 50.000 L 111.719 50.000 111.720 84.668 M250.000 90.234 C 250.000 117.580,249.871 130.469,249.598 130.469 C 249.054 130.469,242.359 134.565,240.509 136.030 C 238.662 137.492,238.424 137.276,239.225 134.863 C 241.150 129.070,241.955 115.877,240.794 109.180 C 238.167 94.032,226.103 77.810,213.194 72.067 L 210.568 70.898 210.557 60.449 L 210.547 50.000 230.273 50.000 L 250.000 50.000 250.000 90.234 M329.106 74.121 C 329.268 87.388,329.318 124.942,329.217 157.574 L 329.033 216.906 309.536 236.365 C 298.813 247.068,289.907 255.833,289.746 255.842 C 289.585 255.852,289.453 254.087,289.453 251.921 C 289.453 249.701,289.297 248.039,289.095 248.112 C 288.678 248.264,267.406 269.967,257.324 280.527 L 250.391 287.789 250.391 291.684 L 250.391 295.579 241.309 304.525 C 227.019 318.599,219.239 326.400,214.724 331.180 L 210.547 335.603 210.547 303.419 L 210.547 271.235 215.809 270.371 C 237.290 266.846,247.409 260.527,270.940 235.938 C 273.099 233.682,278.059 228.721,281.964 224.915 L 289.063 217.994 289.063 214.064 L 289.063 210.134 280.393 218.961 C 269.311 230.245,269.042 230.383,272.507 223.000 C 273.848 220.141,274.422 219.481,281.328 212.846 C 288.439 206.015,290.062 203.994,289.450 202.734 C 289.293 202.412,289.129 167.915,289.085 126.074 L 289.007 50.000 308.910 50.000 L 328.813 50.000 329.106 74.121 M209.743 76.718 C 216.653 79.526,225.147 88.605,229.877 98.242 C 236.979 112.708,235.995 127.370,226.953 141.797 C 215.387 160.252,215.456 180.693,227.084 180.656 C 232.317 180.640,233.743 178.425,232.479 172.275 C 230.791 164.057,231.604 157.434,235.199 150.108 C 237.614 145.187,238.767 144.128,245.208 140.914 C 250.701 138.173,250.428 138.156,249.924 141.211 C 248.680 148.743,250.928 156.328,257.099 165.430 C 272.705 188.445,274.783 207.437,264.064 229.102 C 253.706 250.037,236.389 261.467,209.610 265.044 L 207.698 265.299 209.537 263.021 C 219.228 251.012,223.080 238.068,220.860 224.971 C 219.510 217.008,216.740 211.704,208.663 201.617 C 199.534 190.217,197.180 185.410,197.110 178.029 C 197.088 175.720,196.958 173.874,196.821 173.927 C 195.478 174.444,189.749 183.496,188.233 187.495 C 184.808 196.533,185.145 204.617,189.330 213.776 C 192.874 221.532,191.206 227.853,185.385 228.726 C 177.744 229.872,170.801 221.860,170.612 211.680 C 170.550 208.329,170.342 208.322,168.825 211.621 C 162.701 224.943,166.556 243.302,178.057 255.587 C 179.706 257.349,181.533 259.368,182.117 260.075 C 182.702 260.782,183.713 261.546,184.364 261.773 C 185.014 262.000,185.547 262.432,185.547 262.734 C 185.547 264.235,179.046 262.495,171.684 259.023 C 138.180 243.219,124.938 205.773,141.211 172.852 C 145.863 163.439,149.994 158.048,164.260 142.773 C 166.668 140.195,170.816 135.713,173.478 132.813 C 176.141 129.912,180.912 124.870,184.082 121.607 C 187.251 118.344,189.844 115.520,189.844 115.330 C 189.844 115.141,191.800 112.712,194.190 109.934 C 204.116 98.399,205.558 93.755,204.037 78.223 L 203.798 75.781 205.618 75.781 C 206.637 75.781,208.452 76.193,209.743 76.718 M278.125 234.023 C 272.217 239.953,263.560 248.518,258.887 253.056 L 250.391 261.306 250.391 265.183 L 250.391 269.059 268.227 251.139 C 278.037 241.282,286.654 232.819,287.377 232.332 C 288.989 231.245,289.128 230.747,288.982 226.563 L 288.867 223.242 278.125 234.023 M288.429 234.668 C 288.309 235.044,288.009 235.791,287.763 236.328 C 287.517 236.865,279.008 245.668,268.853 255.891 L 250.391 274.476 250.391 278.058 C 250.391 280.029,250.537 281.641,250.717 281.641 C 250.896 281.641,253.638 278.913,256.810 275.580 C 259.983 272.247,268.512 263.530,275.764 256.210 L 288.950 242.901 289.169 238.443 C 289.370 234.359,289.050 232.725,288.429 234.668 M155.561 256.778 C 165.223 264.041,181.179 270.652,189.160 270.697 L 190.234 270.703 190.234 303.026 L 190.234 335.349 170.605 315.723 L 150.977 296.097 151.081 274.764 C 151.163 257.914,151.286 253.513,151.667 253.822 C 151.932 254.036,153.684 255.367,155.561 256.778 " stroke="none" fill="#fbfbf8" fill-rule="evenodd"></path><path id="path2" d="M310.272 50.291 C 311.947 50.364,314.583 50.364,316.131 50.290 C 317.679 50.216,316.309 50.156,313.086 50.156 C 309.863 50.157,308.597 50.217,310.272 50.291 M329.069 82.227 C 329.069 86.309,329.127 87.925,329.198 85.820 C 329.268 83.714,329.268 80.374,329.197 78.398 C 329.126 76.422,329.069 78.145,329.069 82.227 M120.703 141.138 C 120.703 141.205,121.274 141.776,121.973 142.407 L 123.242 143.555 122.095 142.285 C 121.025 141.102,120.703 140.836,120.703 141.138 M137.093 145.020 C 138.051 146.040,138.886 146.875,138.949 146.875 C 139.242 146.875,138.932 146.524,137.207 144.906 L 135.352 143.164 137.093 145.020 M334.474 161.914 C 334.478 162.773,334.558 163.079,334.651 162.593 C 334.745 162.107,334.741 161.404,334.643 161.031 C 334.546 160.657,334.469 161.055,334.474 161.914 M128.125 166.211 C 128.854 166.963,129.538 167.578,129.645 167.578 C 129.753 167.578,129.244 166.963,128.516 166.211 C 127.787 165.459,127.103 164.844,126.995 164.844 C 126.888 164.844,127.396 165.459,128.125 166.211 M111.496 216.211 C 111.496 221.152,111.552 223.120,111.620 220.583 C 111.688 218.047,111.688 214.004,111.620 211.599 C 111.551 209.194,111.495 211.270,111.496 216.211 M289.180 215.625 C 289.180 216.807,289.253 217.290,289.342 216.699 C 289.432 216.108,289.432 215.142,289.342 214.551 C 289.253 213.960,289.180 214.443,289.180 215.625 M336.896 227.832 L 335.352 229.492 337.012 227.948 C 337.925 227.099,338.672 226.352,338.672 226.288 C 338.672 225.992,338.332 226.288,336.896 227.832 M85.547 238.794 C 85.547 238.861,86.118 239.433,86.816 240.064 L 88.086 241.211 86.939 239.941 C 85.869 238.758,85.547 238.492,85.547 238.794 M89.453 242.700 C 89.453 242.768,90.024 243.339,90.723 243.970 L 91.992 245.117 90.845 243.848 C 89.775 242.664,89.453 242.399,89.453 242.700 M261.523 262.891 C 258.952 265.469,256.936 267.578,257.043 267.578 C 257.151 267.578,259.343 265.469,261.914 262.891 C 264.485 260.313,266.501 258.203,266.394 258.203 C 266.287 258.203,264.095 260.313,261.523 262.891 M110.547 263.794 C 110.547 263.861,111.118 264.433,111.816 265.064 L 113.086 266.211 111.939 264.941 C 110.869 263.758,110.547 263.492,110.547 263.794 M250.106 266.406 C 250.106 267.373,250.183 267.769,250.276 267.285 C 250.369 266.802,250.369 266.011,250.276 265.527 C 250.183 265.044,250.106 265.439,250.106 266.406 M283.203 270.508 C 282.254 271.475,281.566 272.266,281.673 272.266 C 281.781 272.266,282.645 271.475,283.594 270.508 C 284.543 269.541,285.231 268.750,285.124 268.750 C 285.016 268.750,284.152 269.541,283.203 270.508 M257.593 274.707 L 256.445 275.977 257.715 274.829 C 258.413 274.198,258.984 273.627,258.984 273.560 C 258.984 273.258,258.662 273.524,257.593 274.707 M129.102 293.750 C 130.377 295.039,131.509 296.094,131.616 296.094 C 131.724 296.094,130.768 295.039,129.492 293.750 C 128.217 292.461,127.085 291.406,126.978 291.406 C 126.870 291.406,127.826 292.461,129.102 293.750 M140.999 294.238 C 142.618 295.963,142.969 296.273,142.969 295.980 C 142.969 295.917,142.134 295.082,141.113 294.124 L 139.258 292.383 140.999 294.238 M240.014 305.566 L 238.867 306.836 240.137 305.689 C 240.835 305.058,241.406 304.486,241.406 304.419 C 241.406 304.117,241.084 304.383,240.014 305.566 M244.717 320.020 L 241.602 323.242 244.824 320.126 C 247.817 317.232,248.225 316.797,247.940 316.797 C 247.881 316.797,246.431 318.247,244.717 320.020 M220.099 333.301 L 218.555 334.961 220.215 333.417 C 221.128 332.568,221.875 331.820,221.875 331.757 C 221.875 331.461,221.535 331.757,220.099 333.301 M203.899 360.840 L 200.195 364.648 204.004 360.945 C 207.541 357.506,207.990 357.031,207.707 357.031 C 207.649 357.031,205.935 358.745,203.899 360.840 " stroke="none" fill="#e79998" fill-rule="evenodd"></path><path id="path3" d="M66.204 87.891 C 66.204 112.061,66.251 121.948,66.309 109.863 C 66.366 97.778,66.366 78.003,66.309 65.918 C 66.251 53.833,66.204 63.721,66.204 87.891 M71.670 78.320 C 71.670 93.789,71.718 100.060,71.777 92.256 C 71.836 84.453,71.836 71.796,71.777 64.131 C 71.718 56.467,71.670 62.852,71.670 78.320 M190.346 55.273 C 190.349 56.348,190.425 56.741,190.515 56.147 C 190.604 55.553,190.602 54.674,190.509 54.194 C 190.417 53.713,190.343 54.199,190.346 55.273 M190.408 74.805 C 190.408 81.465,190.461 84.244,190.526 80.981 C 190.592 77.718,190.592 72.269,190.527 68.872 C 190.462 65.475,190.408 68.145,190.408 74.805 M334.492 65.234 C 334.492 66.416,334.565 66.899,334.655 66.309 C 334.744 65.718,334.744 64.751,334.655 64.160 C 334.565 63.569,334.492 64.053,334.492 65.234 M189.233 106.348 L 188.086 107.617 189.355 106.470 C 190.054 105.839,190.625 105.268,190.625 105.200 C 190.625 104.899,190.303 105.164,189.233 106.348 M334.514 128.711 C 334.512 130.645,334.579 131.485,334.660 130.578 C 334.742 129.672,334.743 128.090,334.663 127.063 C 334.582 126.036,334.515 126.777,334.514 128.711 M115.820 136.328 C 117.529 138.047,119.015 139.453,119.122 139.453 C 119.230 139.453,117.920 138.047,116.211 136.328 C 114.502 134.609,113.016 133.203,112.909 133.203 C 112.802 133.203,114.112 134.609,115.820 136.328 M334.474 136.523 C 334.478 137.383,334.558 137.688,334.651 137.202 C 334.745 136.717,334.741 136.013,334.643 135.640 C 334.546 135.267,334.469 135.664,334.474 136.523 M111.066 141.211 C 111.067 142.715,111.138 143.282,111.223 142.472 C 111.307 141.661,111.306 140.431,111.219 139.737 C 111.133 139.044,111.064 139.707,111.066 141.211 M140.234 148.242 C 140.963 148.994,141.647 149.609,141.755 149.609 C 141.862 149.609,141.354 148.994,140.625 148.242 C 139.896 147.490,139.212 146.875,139.105 146.875 C 138.997 146.875,139.506 147.490,140.234 148.242 M143.359 151.367 C 144.088 152.119,144.772 152.734,144.880 152.734 C 144.987 152.734,144.479 152.119,143.750 151.367 C 143.021 150.615,142.337 150.000,142.230 150.000 C 142.122 150.000,142.631 150.615,143.359 151.367 M132.813 153.247 C 132.813 153.314,133.384 153.886,134.082 154.517 L 135.352 155.664 134.204 154.395 C 133.135 153.211,132.813 152.945,132.813 153.247 M122.266 155.200 C 122.266 155.268,122.837 155.839,123.535 156.470 L 124.805 157.617 123.657 156.348 C 122.588 155.164,122.266 154.899,122.266 155.200 M334.487 165.039 C 334.490 166.113,334.566 166.506,334.655 165.913 C 334.745 165.319,334.743 164.440,334.650 163.959 C 334.557 163.479,334.484 163.965,334.487 165.039 M66.199 195.508 C 66.199 208.613,66.248 213.918,66.308 207.296 C 66.368 200.674,66.368 189.952,66.308 183.468 C 66.248 176.984,66.199 182.402,66.199 195.508 M111.427 206.055 C 111.431 206.914,111.511 207.220,111.604 206.734 C 111.698 206.248,111.694 205.545,111.597 205.171 C 111.499 204.798,111.422 205.195,111.427 206.055 M278.125 215.820 C 277.176 216.787,276.488 217.578,276.595 217.578 C 276.703 217.578,277.567 216.787,278.516 215.820 C 279.464 214.854,280.153 214.063,280.045 214.063 C 279.938 214.063,279.074 214.854,278.125 215.820 M73.242 218.750 C 74.081 219.609,74.856 220.313,74.963 220.313 C 75.071 220.313,74.472 219.609,73.633 218.750 C 72.794 217.891,72.019 217.188,71.912 217.188 C 71.804 217.188,72.403 217.891,73.242 218.750 M340.234 224.414 C 339.286 225.381,338.597 226.172,338.705 226.172 C 338.812 226.172,339.676 225.381,340.625 224.414 C 341.574 223.447,342.262 222.656,342.155 222.656 C 342.047 222.656,341.183 223.447,340.234 224.414 M61.523 226.563 C 62.363 227.422,63.137 228.125,63.244 228.125 C 63.352 228.125,62.753 227.422,61.914 226.563 C 61.075 225.703,60.300 225.000,60.193 225.000 C 60.086 225.000,60.684 225.703,61.523 226.563 M111.465 228.125 C 111.465 229.951,111.532 230.698,111.614 229.785 C 111.696 228.872,111.696 227.378,111.614 226.465 C 111.532 225.552,111.465 226.299,111.465 228.125 M331.824 232.910 L 329.492 235.352 331.934 233.020 C 333.276 231.738,334.375 230.639,334.375 230.579 C 334.375 230.290,333.989 230.642,331.824 232.910 M69.922 234.961 C 70.651 235.713,71.335 236.328,71.442 236.328 C 71.550 236.328,71.041 235.713,70.313 234.961 C 69.584 234.209,68.899 233.594,68.792 233.594 C 68.685 233.594,69.193 234.209,69.922 234.961 M95.898 241.406 C 96.957 242.480,97.910 243.359,98.018 243.359 C 98.125 243.359,97.347 242.480,96.289 241.406 C 95.231 240.332,94.277 239.453,94.170 239.453 C 94.063 239.453,94.840 240.332,95.898 241.406 M101.758 247.266 C 103.466 248.984,104.952 250.391,105.060 250.391 C 105.167 250.391,103.857 248.984,102.148 247.266 C 100.440 245.547,98.954 244.141,98.846 244.141 C 98.739 244.141,100.049 245.547,101.758 247.266 M258.203 248.633 C 256.603 250.244,255.381 251.563,255.488 251.563 C 255.596 251.563,256.993 250.244,258.594 248.633 C 260.194 247.021,261.416 245.703,261.309 245.703 C 261.201 245.703,259.804 247.021,258.203 248.633 M86.523 251.172 C 87.799 252.461,88.931 253.516,89.038 253.516 C 89.145 253.516,88.190 252.461,86.914 251.172 C 85.638 249.883,84.507 248.828,84.399 248.828 C 84.292 248.828,85.248 249.883,86.523 251.172 M254.688 264.648 C 253.739 265.615,253.050 266.406,253.158 266.406 C 253.265 266.406,254.129 265.615,255.078 264.648 C 256.027 263.682,256.715 262.891,256.608 262.891 C 256.501 262.891,255.636 263.682,254.688 264.648 M128.320 281.250 C 129.159 282.109,129.934 282.813,130.041 282.813 C 130.149 282.813,129.550 282.109,128.711 281.250 C 127.872 280.391,127.097 279.688,126.990 279.688 C 126.882 279.688,127.481 280.391,128.320 281.250 M243.346 302.246 L 241.211 304.492 243.457 302.357 C 245.544 300.374,245.882 300.000,245.592 300.000 C 245.531 300.000,244.520 301.011,243.346 302.246 M223.026 330.371 L 221.680 331.836 223.145 330.490 C 224.508 329.237,224.789 328.906,224.491 328.906 C 224.425 328.906,223.766 329.565,223.026 330.371 M214.233 350.488 L 213.086 351.758 214.355 350.611 C 215.054 349.979,215.625 349.408,215.625 349.341 C 215.625 349.039,215.303 349.305,214.233 350.488 M209.546 355.176 L 208.398 356.445 209.668 355.298 C 210.851 354.229,211.117 353.906,210.815 353.906 C 210.748 353.906,210.177 354.478,209.546 355.176 " stroke="none" fill="#ecc9c6" fill-rule="evenodd"></path><path id="path4" d="M342.770 128.906 C 342.770 180.146,342.816 201.108,342.871 175.488 C 342.927 149.868,342.927 107.944,342.871 82.324 C 342.816 56.704,342.770 77.666,342.770 128.906 M190.534 44.033 C 191.236 44.120,192.291 44.118,192.878 44.029 C 193.465 43.940,192.891 43.869,191.602 43.871 C 190.313 43.873,189.832 43.946,190.534 44.033 M334.535 55.664 C 334.534 59.316,334.593 60.863,334.665 59.101 C 334.738 57.339,334.738 54.351,334.666 52.461 C 334.594 50.570,334.535 52.012,334.535 55.664 M166.520 50.290 C 167.979 50.365,170.264 50.365,171.598 50.289 C 172.932 50.213,171.738 50.151,168.945 50.152 C 166.152 50.152,165.061 50.215,166.520 50.290 M321.011 50.290 C 322.363 50.366,324.472 50.365,325.699 50.288 C 326.926 50.211,325.820 50.148,323.242 50.149 C 320.664 50.150,319.660 50.213,321.011 50.290 M249.797 90.234 C 249.797 112.256,249.845 121.265,249.902 110.254 C 249.960 99.243,249.960 81.226,249.902 70.215 C 249.845 59.204,249.797 68.213,249.797 90.234 M190.377 91.211 C 190.378 93.359,190.444 94.188,190.523 93.053 C 190.602 91.918,190.601 90.160,190.521 89.147 C 190.441 88.134,190.376 89.063,190.377 91.211 M329.096 140.039 C 329.096 167.969,329.142 179.337,329.199 165.302 C 329.256 151.266,329.256 128.415,329.199 114.520 C 329.142 100.626,329.096 112.109,329.096 140.039 M241.497 117.578 C 241.497 118.330,241.577 118.638,241.676 118.262 C 241.774 117.886,241.774 117.271,241.676 116.895 C 241.577 116.519,241.497 116.826,241.497 117.578 M181.229 124.512 L 179.883 125.977 181.348 124.630 C 182.153 123.890,182.813 123.231,182.813 123.166 C 182.813 122.867,182.482 123.148,181.229 124.512 M114.437 127.441 C 116.056 129.166,116.406 129.476,116.406 129.183 C 116.406 129.120,115.571 128.285,114.551 127.327 L 112.695 125.586 114.437 127.441 M130.469 138.477 C 132.501 140.518,134.252 142.188,134.360 142.188 C 134.467 142.188,132.892 140.518,130.859 138.477 C 128.827 136.436,127.076 134.766,126.969 134.766 C 126.861 134.766,128.436 136.436,130.469 138.477 M334.546 150.000 C 334.546 155.908,334.601 158.325,334.667 155.371 C 334.733 152.417,334.733 147.583,334.667 144.629 C 334.601 141.675,334.546 144.092,334.546 150.000 M72.062 182.813 C 72.062 201.826,72.110 209.604,72.168 200.098 C 72.226 190.591,72.226 175.034,72.168 165.527 C 72.110 156.021,72.062 163.799,72.062 182.813 M115.430 153.516 C 116.269 154.375,117.043 155.078,117.151 155.078 C 117.258 155.078,116.659 154.375,115.820 153.516 C 114.981 152.656,114.207 151.953,114.099 151.953 C 113.992 151.953,114.591 152.656,115.430 153.516 M118.164 163.672 C 119.222 164.746,120.176 165.625,120.283 165.625 C 120.391 165.625,119.613 164.746,118.555 163.672 C 117.497 162.598,116.543 161.719,116.436 161.719 C 116.328 161.719,117.106 162.598,118.164 163.672 M185.664 200.391 C 185.664 201.572,185.737 202.056,185.827 201.465 C 185.916 200.874,185.916 199.907,185.827 199.316 C 185.737 198.726,185.664 199.209,185.664 200.391 M274.798 237.207 L 270.508 241.602 274.902 237.311 C 277.319 234.952,279.297 232.974,279.297 232.917 C 279.297 232.635,278.783 233.125,274.798 237.207 M313.857 239.941 L 311.133 242.773 313.965 240.050 C 316.595 237.520,316.975 237.109,316.689 237.109 C 316.629 237.109,315.355 238.384,313.857 239.941 M77.734 242.310 C 77.734 242.377,78.306 242.948,79.004 243.579 L 80.273 244.727 79.126 243.457 C 78.057 242.274,77.734 242.008,77.734 242.310 M279.468 245.020 L 278.320 246.289 279.590 245.142 C 280.288 244.511,280.859 243.939,280.859 243.872 C 280.859 243.570,280.537 243.836,279.468 245.020 M92.969 246.289 C 93.698 247.041,94.382 247.656,94.489 247.656 C 94.597 247.656,94.088 247.041,93.359 246.289 C 92.631 245.537,91.946 244.922,91.839 244.922 C 91.732 244.922,92.240 245.537,92.969 246.289 M314.832 249.902 L 312.305 252.539 314.941 250.011 C 316.392 248.621,317.578 247.434,317.578 247.375 C 317.578 247.087,317.180 247.453,314.832 249.902 M289.530 253.027 C 289.459 255.656,289.791 256.502,290.467 255.408 C 290.636 255.136,290.575 255.063,290.313 255.225 C 290.017 255.408,289.837 254.655,289.743 252.844 L 289.606 250.195 289.530 253.027 M266.406 252.930 C 265.457 253.896,264.769 254.688,264.876 254.688 C 264.984 254.688,265.848 253.896,266.797 252.930 C 267.746 251.963,268.434 251.172,268.327 251.172 C 268.219 251.172,267.355 251.963,266.406 252.930 M93.555 258.203 C 95.263 259.922,96.749 261.328,96.857 261.328 C 96.964 261.328,95.654 259.922,93.945 258.203 C 92.237 256.484,90.751 255.078,90.643 255.078 C 90.536 255.078,91.846 256.484,93.555 258.203 M259.362 260.059 L 257.227 262.305 259.473 260.170 C 261.559 258.186,261.898 257.813,261.608 257.813 C 261.547 257.813,260.536 258.823,259.362 260.059 M271.667 260.254 L 269.336 262.695 271.777 260.364 C 273.120 259.081,274.219 257.983,274.219 257.922 C 274.219 257.634,273.833 257.986,271.667 260.254 M291.406 262.305 C 289.806 263.916,288.584 265.234,288.691 265.234 C 288.799 265.234,290.196 263.916,291.797 262.305 C 293.397 260.693,294.619 259.375,294.512 259.375 C 294.404 259.375,293.007 260.693,291.406 262.305 M183.062 262.313 C 182.460 262.754,182.492 262.824,183.404 263.052 C 184.436 263.312,185.156 263.094,185.156 262.523 C 185.156 261.952,183.748 261.812,183.062 262.313 M250.106 263.281 C 250.106 264.248,250.183 264.644,250.276 264.160 C 250.369 263.677,250.369 262.886,250.276 262.402 C 250.183 261.919,250.106 262.314,250.106 263.281 M298.036 266.699 L 295.508 269.336 298.145 266.808 C 300.594 264.460,300.960 264.063,300.672 264.063 C 300.612 264.063,299.426 265.249,298.036 266.699 M114.437 267.676 C 116.056 269.400,116.406 269.711,116.406 269.417 C 116.406 269.355,115.571 268.520,114.551 267.562 L 112.695 265.820 114.437 267.676 M286.108 267.676 L 284.961 268.945 286.230 267.798 C 286.929 267.167,287.500 266.596,287.500 266.528 C 287.500 266.227,287.178 266.492,286.108 267.676 M254.286 270.215 L 251.758 272.852 254.395 270.324 C 256.844 267.976,257.210 267.578,256.922 267.578 C 256.862 267.578,255.676 268.765,254.286 270.215 M280.057 273.730 L 278.711 275.195 280.176 273.849 C 281.539 272.596,281.820 272.266,281.522 272.266 C 281.457 272.266,280.797 272.925,280.057 273.730 M259.552 277.832 L 258.008 279.492 259.668 277.948 C 260.581 277.099,261.328 276.352,261.328 276.288 C 261.328 275.992,260.988 276.288,259.552 277.832 M268.352 296.387 L 264.258 300.586 268.457 296.491 C 270.767 294.239,272.656 292.350,272.656 292.292 C 272.656 292.010,272.156 292.486,268.352 296.387 M131.641 296.201 C 131.641 296.260,133.003 297.623,134.668 299.229 L 137.695 302.148 134.775 299.121 C 132.063 296.309,131.641 295.916,131.641 296.201 M245.483 308.301 L 244.336 309.570 245.605 308.423 C 246.304 307.792,246.875 307.221,246.875 307.153 C 246.875 306.852,246.553 307.117,245.483 308.301 M235.718 309.863 L 234.570 311.133 235.840 309.986 C 236.538 309.354,237.109 308.783,237.109 308.716 C 237.109 308.414,236.787 308.680,235.718 309.863 M155.859 320.508 C 156.588 321.260,157.272 321.875,157.380 321.875 C 157.487 321.875,156.979 321.260,156.250 320.508 C 155.521 319.756,154.837 319.141,154.730 319.141 C 154.622 319.141,155.131 319.756,155.859 320.508 M230.838 322.949 L 229.492 324.414 230.957 323.068 C 232.320 321.815,232.601 321.484,232.303 321.484 C 232.238 321.484,231.579 322.144,230.838 322.949 M229.880 334.863 L 218.164 346.680 229.980 334.963 C 240.962 324.075,241.973 323.047,241.697 323.047 C 241.642 323.047,236.324 328.364,229.880 334.863 M169.531 334.180 C 171.564 336.221,173.315 337.891,173.422 337.891 C 173.529 337.891,171.954 336.221,169.922 334.180 C 167.889 332.139,166.138 330.469,166.031 330.469 C 165.924 330.469,167.499 332.139,169.531 334.180 M215.625 337.695 C 214.024 339.307,212.803 340.625,212.910 340.625 C 213.018 340.625,214.415 339.307,216.016 337.695 C 217.616 336.084,218.838 334.766,218.730 334.766 C 218.623 334.766,217.226 336.084,215.625 337.695 " stroke="none" fill="#e07c74" fill-rule="evenodd"></path></g></svg>