<svg id="svg" version="1.1" xmlns="http://www.w3.org/2000/svg" xmlns:xlink="http://www.w3.org/1999/xlink" width="400" height="400" viewBox="0, 0, 400,400"><g id="svgg"><path id="path0" d="M57.811 35.839 C 57.810 36.001,57.811 78.053,57.812 129.289 L 57.816 222.444 104.201 268.742 C 129.713 294.206,161.766 326.163,175.430 339.758 L 200.274 364.476 271.427 293.432 L 342.580 222.388 342.481 129.065 L 342.383 35.742 200.098 35.644 C 121.841 35.590,57.812 35.678,57.811 35.839 M334.766 131.577 L 334.766 219.014 276.065 277.573 C 243.780 309.781,214.332 339.014,210.626 342.535 L 203.888 348.936 203.995 301.519 L 204.102 254.102 205.030 252.047 C 207.136 247.389,211.531 244.648,222.852 240.936 C 243.679 234.106,256.127 223.948,263.445 207.813 C 266.667 200.709,268.124 193.541,268.441 183.235 L 268.555 179.557 265.625 179.650 C 242.922 180.371,220.077 195.540,209.942 216.624 C 206.515 223.753,201.918 239.938,200.907 248.438 C 200.610 250.933,200.144 251.155,199.818 248.955 C 195.160 217.597,183.736 197.967,164.648 188.523 C 155.006 183.751,144.789 180.715,135.596 179.889 L 132.715 179.631 132.982 183.468 C 133.997 198.043,137.283 207.655,144.857 218.202 C 153.314 229.979,163.432 237.011,176.876 240.455 C 189.208 243.614,193.651 246.428,196.180 252.680 L 197.070 254.883 197.174 302.570 L 197.278 350.257 131.651 284.601 L 66.024 218.945 66.020 131.543 L 66.016 44.141 200.391 44.141 L 334.766 44.141 334.766 131.577 M228.613 50.293 L 210.547 50.398 210.547 65.981 L 210.547 81.564 215.466 87.364 C 221.880 94.928,223.177 96.435,227.270 101.087 C 228.457 102.437,231.464 105.973,233.953 108.945 C 236.441 111.917,241.008 117.228,244.103 120.748 C 247.197 124.268,249.790 127.222,249.865 127.311 C 249.939 127.401,250.000 110.042,250.000 88.737 L 250.000 50.000 248.340 50.094 C 247.427 50.145,238.550 50.235,228.613 50.293 M72.049 133.863 L 72.338 217.336 91.507 236.793 C 102.049 247.494,110.821 256.250,111.000 256.250 C 111.179 256.250,111.370 235.317,111.424 209.732 L 111.523 163.213 118.616 170.083 C 126.520 177.739,126.349 177.622,126.078 175.222 C 125.964 174.210,126.064 173.311,126.318 173.057 C 126.756 172.619,125.359 171.163,115.137 161.403 L 111.328 157.766 111.328 153.606 L 111.328 149.446 122.721 160.842 L 134.115 172.239 136.665 172.485 L 139.216 172.731 134.159 167.366 C 131.377 164.416,125.015 158.002,120.020 153.113 L 110.938 144.225 110.938 140.244 C 110.938 138.055,111.080 136.322,111.254 136.393 C 111.428 136.465,113.650 138.721,116.192 141.406 C 122.874 148.465,145.911 170.855,148.438 172.746 C 149.619 173.631,150.850 174.638,151.172 174.984 C 151.494 175.331,153.691 176.296,156.055 177.129 C 163.824 179.869,168.277 182.013,174.039 185.788 L 175.006 186.422 174.905 161.367 L 174.805 136.312 163.672 136.308 C 157.549 136.306,152.231 136.310,151.855 136.316 C 151.221 136.327,151.172 137.114,151.172 147.266 C 151.172 153.281,151.105 158.203,151.023 158.203 C 150.941 158.203,145.272 152.614,138.425 145.783 C 131.578 138.952,122.681 130.139,118.652 126.198 L 111.328 119.033 111.328 84.712 L 111.328 50.391 91.544 50.391 L 71.760 50.391 72.049 133.863 M151.170 50.586 C 151.169 50.586,151.125 67.944,151.072 89.160 C 151.020 110.376,151.066 127.734,151.176 127.734 C 151.285 127.734,151.570 127.421,151.810 127.038 C 152.281 126.284,161.094 116.049,166.188 110.340 C 167.919 108.400,171.357 104.460,173.828 101.586 C 180.183 94.191,183.706 90.125,184.302 89.498 C 184.584 89.200,186.035 87.509,187.525 85.739 L 190.234 82.522 190.212 67.921 C 190.199 59.891,190.068 52.705,189.919 51.953 L 189.648 50.586 170.410 50.586 C 159.829 50.586,151.171 50.586,151.170 50.586 M289.453 127.354 L 289.453 204.317 287.064 206.943 C 285.750 208.388,281.820 212.383,278.331 215.820 C 274.841 219.258,267.041 227.168,260.996 233.398 L 250.005 244.727 250.003 240.397 C 249.999 235.067,250.207 235.227,246.499 237.709 C 239.411 242.453,233.586 245.048,222.301 248.486 C 214.790 250.775,215.311 250.535,213.017 252.758 C 210.421 255.274,210.547 253.087,210.547 295.662 L 210.547 335.023 230.176 315.349 L 249.805 295.674 249.915 291.368 L 250.026 287.063 251.478 285.830 C 252.772 284.731,274.411 262.881,285.156 251.825 L 289.258 247.604 289.453 251.785 L 289.648 255.967 309.277 236.537 L 328.906 217.107 328.906 133.749 L 328.906 50.391 309.180 50.391 L 289.453 50.391 289.453 127.354 M200.391 80.401 C 200.391 81.055,189.639 93.735,173.438 112.190 C 168.174 118.185,162.736 124.443,161.355 126.096 L 158.842 129.102 170.241 129.205 L 181.641 129.309 181.641 160.558 L 181.641 191.808 184.863 195.260 C 190.487 201.284,195.040 208.554,198.472 216.992 C 199.172 218.711,199.860 220.255,200.003 220.424 C 200.146 220.593,201.302 218.491,202.573 215.754 C 206.632 207.009,211.729 199.285,216.570 194.545 L 218.750 192.410 218.750 160.853 L 218.750 129.297 230.700 129.297 L 242.651 129.297 240.971 127.246 C 240.046 126.118,237.866 123.613,236.125 121.680 C 234.383 119.746,230.430 115.176,227.339 111.523 C 224.247 107.871,220.037 102.949,217.982 100.586 C 213.598 95.543,206.688 87.392,203.165 83.105 C 200.673 80.074,200.391 79.799,200.391 80.401 M129.326 141.766 C 132.887 145.328,139.254 151.494,143.474 155.469 L 151.147 162.695 151.159 166.987 L 151.172 171.279 145.605 165.817 C 142.544 162.813,133.579 153.939,125.684 146.097 L 111.328 131.840 111.328 127.960 L 111.328 124.080 117.090 129.685 C 120.259 132.768,125.765 138.205,129.326 141.766 M225.781 161.309 L 225.781 186.290 228.997 184.295 C 233.562 181.464,241.660 177.461,245.845 175.967 L 249.414 174.692 249.515 155.510 L 249.617 136.328 237.699 136.328 L 225.781 136.328 225.781 161.309 M289.453 213.891 L 289.453 217.626 269.727 237.276 L 250.000 256.926 250.000 252.540 L 250.000 248.153 251.465 247.134 C 252.271 246.574,261.011 238.024,270.889 228.136 C 280.766 218.247,288.984 210.156,289.150 210.156 C 289.317 210.156,289.453 211.837,289.453 213.891 M289.422 226.696 L 289.461 230.735 287.211 232.713 C 285.974 233.802,277.095 242.515,267.480 252.077 L 250.000 269.463 250.006 265.298 L 250.011 261.133 258.306 253.257 C 262.869 248.925,271.611 240.295,277.734 234.080 C 283.857 227.864,288.983 222.751,289.124 222.717 C 289.266 222.684,289.400 224.474,289.422 226.696 M289.459 238.770 L 289.465 242.773 269.830 262.193 L 250.195 281.613 250.083 277.835 L 249.970 274.057 269.326 254.900 C 279.972 244.363,288.680 235.522,288.677 235.254 C 288.674 234.985,288.848 234.766,289.063 234.766 C 289.297 234.766,289.456 236.365,289.459 238.770 M151.172 265.783 L 151.172 296.020 170.355 315.393 C 180.905 326.048,189.694 334.766,189.886 334.766 C 190.416 334.766,190.335 257.220,189.803 255.273 C 188.752 251.434,185.408 249.598,174.943 247.117 C 167.308 245.306,159.755 241.801,154.018 237.406 C 152.683 236.384,151.497 235.547,151.381 235.547 C 151.266 235.547,151.172 249.153,151.172 265.783 " stroke="none" fill="#d31313" fill-rule="evenodd"></path><path id="path1" d="M0.000 200.000 L 0.000 400.000 200.000 400.000 L 400.000 400.000 400.000 200.000 L 400.000 0.000 200.000 0.000 L 0.000 0.000 0.000 200.000 M342.872 128.912 L 342.970 222.081 277.908 287.115 C 242.124 322.883,210.030 354.985,206.588 358.451 L 200.330 364.754 139.520 304.165 C 106.075 270.841,73.921 238.826,68.066 233.020 L 57.422 222.465 57.422 129.005 L 57.422 35.546 200.098 35.644 L 342.773 35.742 342.872 128.912 M66.356 95.605 C 66.329 123.911,66.339 163.330,66.379 183.203 L 66.451 219.336 117.308 270.149 C 145.279 298.096,174.614 327.477,182.497 335.439 L 196.830 349.916 196.971 339.118 C 197.324 312.171,196.830 255.332,196.226 253.419 C 194.229 247.093,189.449 243.815,177.930 240.872 C 150.783 233.938,134.357 212.370,132.705 181.492 L 132.603 179.585 136.160 179.835 C 157.411 181.329,178.716 194.007,188.176 210.789 C 193.284 219.849,200.000 241.828,200.000 249.482 C 200.000 251.354,200.302 250.286,201.732 243.359 C 204.226 231.277,206.147 224.676,209.059 218.182 C 219.118 195.750,241.223 180.775,266.113 179.530 L 268.750 179.398 268.741 181.398 C 268.607 211.716,253.734 230.879,222.266 241.280 C 211.600 244.805,207.771 247.104,205.548 251.319 L 204.492 253.320 204.297 300.879 C 204.189 327.036,204.213 348.438,204.349 348.438 C 204.669 348.437,261.851 291.650,302.723 250.743 L 334.570 218.868 334.471 131.505 L 334.372 44.141 200.389 44.141 L 66.406 44.141 66.356 95.605 M111.742 84.668 L 111.764 119.336 123.753 131.055 C 130.347 137.500,139.082 146.201,143.164 150.391 L 150.586 158.008 150.781 147.070 L 150.977 136.133 162.988 136.030 L 175.000 135.926 175.000 161.127 C 175.000 174.988,174.886 186.328,174.746 186.328 C 174.606 186.328,173.079 185.422,171.352 184.314 C 167.266 181.693,162.328 179.425,156.152 177.333 C 153.413 176.405,151.167 175.457,151.162 175.225 C 151.156 174.994,150.257 174.198,149.164 173.456 C 146.519 171.661,138.770 164.242,123.730 149.104 L 111.328 136.621 111.330 140.478 L 111.331 144.336 125.396 158.398 L 139.460 172.461 136.659 172.577 C 134.863 172.651,133.759 172.533,133.582 172.247 C 133.280 171.758,111.626 150.000,111.442 150.000 C 111.379 150.000,111.327 151.714,111.327 153.809 L 111.325 157.617 119.213 165.263 C 124.304 170.199,126.936 173.011,126.636 173.197 C 126.377 173.357,126.172 174.355,126.172 175.459 L 126.172 177.435 119.628 171.237 C 116.029 167.828,112.719 164.731,112.273 164.355 L 111.462 163.672 111.607 187.988 C 111.687 201.362,111.613 222.295,111.443 234.505 L 111.133 256.706 99.043 244.466 C 92.393 237.734,83.560 228.860,79.414 224.746 L 71.875 217.265 71.875 133.893 C 71.875 88.038,71.992 50.404,72.135 50.260 C 72.279 50.117,81.243 50.000,92.057 50.000 L 111.719 50.000 111.742 84.668 M250.390 74.902 C 250.390 88.599,250.273 106.029,250.130 113.636 L 249.871 127.467 248.861 126.306 C 248.306 125.668,245.307 122.268,242.197 118.751 C 239.087 115.234,235.753 111.378,234.787 110.182 C 232.883 107.825,229.906 104.354,224.549 98.242 C 222.666 96.094,218.750 91.523,215.846 88.086 L 210.567 81.836 210.557 65.918 L 210.547 50.000 230.469 50.000 L 250.391 50.000 250.390 74.902 M328.809 133.604 L 328.908 217.013 313.184 232.619 C 304.537 241.202,295.764 249.942,293.690 252.042 C 289.118 256.670,289.504 256.682,289.369 251.915 L 289.258 247.971 280.841 256.505 C 262.438 275.163,256.437 281.320,256.145 281.842 C 255.977 282.142,254.526 283.461,252.920 284.774 L 250.000 287.160 250.000 291.336 L 250.000 295.513 238.056 307.424 C 231.487 313.976,222.610 322.970,218.329 327.412 L 210.547 335.488 210.548 295.576 C 210.550 250.210,210.202 254.651,213.995 251.653 C 215.489 250.472,216.925 249.837,220.364 248.838 C 232.923 245.187,239.459 242.372,246.665 237.510 C 248.265 236.430,249.664 235.547,249.774 235.547 C 249.884 235.547,250.024 237.500,250.085 239.887 L 250.195 244.226 255.078 239.260 C 257.764 236.529,266.374 227.802,274.213 219.867 C 282.051 211.932,288.681 205.051,288.945 204.575 C 289.320 203.900,289.428 186.915,289.439 126.852 L 289.453 49.993 309.082 50.094 L 328.711 50.195 328.809 133.604 M190.234 66.639 L 190.234 82.888 187.988 85.486 C 186.753 86.915,184.424 89.589,182.813 91.428 C 181.201 93.266,177.246 97.832,174.023 101.573 C 170.801 105.314,166.659 110.050,164.820 112.097 C 162.981 114.145,159.395 118.281,156.850 121.289 C 154.305 124.297,151.899 127.104,151.502 127.528 C 150.801 128.277,150.781 127.230,150.781 89.345 L 150.781 50.391 170.508 50.391 L 190.234 50.391 190.234 66.639 M202.734 82.322 C 204.535 84.582,208.127 88.825,217.516 99.780 C 220.451 103.204,224.337 107.774,226.153 109.936 C 230.304 114.879,233.492 118.565,238.574 124.299 C 240.776 126.784,242.578 128.925,242.578 129.057 C 242.578 129.189,237.328 129.297,230.910 129.297 L 219.243 129.297 219.001 130.762 C 218.868 131.567,218.757 145.771,218.754 162.326 L 218.750 192.425 217.347 193.771 C 212.804 198.131,207.302 206.294,203.280 214.642 C 199.925 221.606,200.110 221.455,198.828 218.281 C 194.792 208.286,189.198 199.381,183.430 193.766 L 181.641 192.025 181.641 160.661 L 181.641 129.297 170.313 129.297 C 163.236 129.297,158.984 129.154,158.984 128.917 C 158.984 128.708,160.961 126.291,163.376 123.546 C 171.564 114.239,184.167 99.757,186.914 96.498 C 188.418 94.713,190.218 92.618,190.915 91.841 C 191.611 91.065,194.072 88.105,196.383 85.264 C 201.291 79.232,200.548 79.577,202.734 82.322 M111.328 128.269 L 111.328 131.929 119.067 139.500 C 123.323 143.664,132.288 152.496,138.989 159.128 L 151.172 171.185 151.160 166.940 L 151.148 162.695 148.914 160.802 C 146.418 158.687,139.099 151.585,122.811 135.470 C 116.773 129.497,111.719 124.609,111.580 124.609 C 111.442 124.609,111.328 126.256,111.328 128.269 M249.801 137.207 C 249.926 137.905,249.978 146.626,249.917 156.587 L 249.805 174.696 246.289 175.969 C 241.220 177.805,235.707 180.462,230.468 183.594 C 227.953 185.098,225.814 186.328,225.713 186.328 C 225.419 186.328,225.307 138.163,225.600 136.999 L 225.866 135.938 237.720 135.938 L 249.574 135.938 249.801 137.207 M272.123 227.062 C 262.914 236.348,254.168 244.981,252.689 246.247 L 250.000 248.548 250.000 252.726 L 250.000 256.904 269.531 237.360 L 289.063 217.816 289.063 213.986 C 289.063 211.880,289.019 210.161,288.965 210.168 C 288.911 210.174,281.332 217.777,272.123 227.062 M282.031 229.925 C 278.270 233.769,269.525 242.478,262.597 249.279 L 250.000 261.644 250.000 265.484 L 250.000 269.324 267.480 251.920 C 277.095 242.347,285.890 233.704,287.026 232.713 L 289.090 230.910 288.979 226.923 L 288.867 222.936 282.031 229.925 M286.610 237.697 C 285.187 239.310,278.257 246.290,271.211 253.208 C 264.164 260.126,256.509 267.727,254.199 270.099 L 250.000 274.411 250.000 277.871 L 250.000 281.331 251.465 280.077 C 252.271 279.387,261.049 270.727,270.972 260.832 L 289.015 242.841 289.136 238.802 C 289.203 236.581,289.244 234.764,289.228 234.765 C 289.211 234.765,288.034 236.085,286.610 237.697 M153.516 236.962 C 157.896 240.855,167.694 245.255,177.204 247.600 C 191.550 251.138,190.215 246.228,190.226 295.506 L 190.234 335.349 170.703 315.820 L 151.172 296.292 151.172 265.676 C 151.172 231.732,150.932 234.666,153.516 236.962 " stroke="none" fill="#fbfbfa" fill-rule="evenodd"></path><path id="path2" d="M342.770 129.102 C 342.770 180.234,342.816 201.210,342.871 175.715 C 342.927 150.219,342.927 108.384,342.871 82.746 C 342.816 57.109,342.770 77.969,342.770 129.102 M66.150 47.852 C 66.151 49.570,66.220 50.225,66.302 49.306 C 66.385 48.387,66.384 46.981,66.300 46.181 C 66.216 45.381,66.148 46.133,66.150 47.852 M229.980 50.286 C 230.894 50.368,232.388 50.368,233.301 50.286 C 234.214 50.204,233.467 50.136,231.641 50.136 C 229.814 50.136,229.067 50.204,229.980 50.286 M250.166 58.203 C 250.166 62.822,250.222 64.712,250.291 62.402 C 250.361 60.093,250.361 56.313,250.291 54.004 C 250.222 51.694,250.166 53.584,250.166 58.203 M66.170 56.836 C 66.170 59.844,66.232 61.023,66.306 59.456 C 66.380 57.889,66.380 55.428,66.305 53.987 C 66.230 52.546,66.169 53.828,66.170 56.836 M66.144 66.211 C 66.146 67.715,66.216 68.282,66.301 67.472 C 66.385 66.661,66.384 65.431,66.298 64.737 C 66.211 64.044,66.142 64.707,66.144 66.211 M66.127 73.242 C 66.130 74.316,66.206 74.709,66.296 74.116 C 66.386 73.522,66.383 72.643,66.291 72.163 C 66.198 71.682,66.124 72.168,66.127 73.242 M250.134 77.930 C 250.135 79.648,250.204 80.303,250.287 79.384 C 250.369 78.465,250.368 77.059,250.284 76.259 C 250.200 75.459,250.132 76.211,250.134 77.930 M66.106 82.422 C 66.106 83.174,66.187 83.481,66.285 83.105 C 66.383 82.729,66.383 82.114,66.285 81.738 C 66.187 81.362,66.106 81.670,66.106 82.422 M250.117 92.578 C 250.117 93.760,250.190 94.243,250.280 93.652 C 250.369 93.062,250.369 92.095,250.280 91.504 C 250.190 90.913,250.117 91.396,250.117 92.578 M250.151 104.297 C 250.151 106.982,250.213 108.081,250.289 106.738 C 250.365 105.396,250.365 103.198,250.289 101.855 C 250.213 100.513,250.151 101.611,250.151 104.297 M121.875 129.419 C 121.875 129.486,122.446 130.058,123.145 130.689 L 124.414 131.836 123.267 130.566 C 122.197 129.383,121.875 129.117,121.875 129.419 M249.708 145.508 C 249.712 146.367,249.792 146.673,249.886 146.187 C 249.979 145.701,249.976 144.998,249.878 144.624 C 249.780 144.251,249.704 144.648,249.708 145.508 M72.062 180.664 C 72.062 200.430,72.110 208.573,72.168 198.760 C 72.226 188.947,72.226 172.775,72.168 162.822 C 72.110 152.870,72.062 160.898,72.062 180.664 M249.782 161.133 C 249.782 167.363,249.836 169.857,249.902 166.675 C 249.967 163.493,249.967 158.396,249.901 155.347 C 249.835 152.299,249.782 154.902,249.782 161.133 M134.180 154.688 C 135.019 155.547,135.793 156.250,135.901 156.250 C 136.008 156.250,135.409 155.547,134.570 154.688 C 133.731 153.828,132.957 153.125,132.849 153.125 C 132.742 153.125,133.341 153.828,134.180 154.688 M134.766 160.278 C 134.766 160.346,135.337 160.917,136.035 161.548 L 137.305 162.695 136.157 161.426 C 135.088 160.242,134.766 159.977,134.766 160.278 M66.199 195.117 C 66.199 208.008,66.248 213.225,66.308 206.710 C 66.369 200.196,66.369 189.649,66.308 183.273 C 66.248 176.897,66.199 182.227,66.199 195.117 M65.430 230.469 C 68.647 233.691,71.367 236.328,71.475 236.328 C 71.582 236.328,69.038 233.691,65.820 230.469 C 62.603 227.246,59.883 224.609,59.775 224.609 C 59.668 224.609,62.212 227.246,65.430 230.469 M264.636 234.473 L 262.305 236.914 264.746 234.583 C 266.089 233.300,267.188 232.202,267.188 232.141 C 267.188 231.853,266.802 232.205,264.636 234.473 M91.406 236.914 C 92.573 238.096,93.616 239.063,93.723 239.063 C 93.831 239.063,92.964 238.096,91.797 236.914 C 90.630 235.732,89.587 234.766,89.480 234.766 C 89.372 234.766,90.239 235.732,91.406 236.914 M255.057 239.355 L 253.711 240.820 255.176 239.474 C 256.539 238.221,256.820 237.891,256.522 237.891 C 256.457 237.891,255.797 238.550,255.057 239.355 M267.763 251.660 L 265.039 254.492 267.871 251.768 C 270.501 249.238,270.882 248.828,270.595 248.828 C 270.536 248.828,269.261 250.103,267.763 251.660 M285.333 251.660 L 283.789 253.320 285.449 251.776 C 286.993 250.340,287.289 250.000,286.993 250.000 C 286.930 250.000,286.182 250.747,285.333 251.660 M301.541 251.855 L 300.195 253.320 301.660 251.974 C 302.466 251.234,303.125 250.575,303.125 250.509 C 303.125 250.211,302.794 250.492,301.541 251.855 M197.058 278.906 C 197.058 291.260,197.107 296.313,197.168 290.137 C 197.228 283.960,197.228 273.853,197.168 267.676 C 197.107 261.499,197.058 266.553,197.058 278.906 M266.406 286.914 C 265.457 287.881,264.769 288.672,264.876 288.672 C 264.984 288.672,265.848 287.881,266.797 286.914 C 267.746 285.947,268.434 285.156,268.327 285.156 C 268.219 285.156,267.355 285.947,266.406 286.914 M171.859 336.426 C 173.477 338.150,173.828 338.461,173.828 338.167 C 173.828 338.105,172.993 337.270,171.973 336.312 L 170.117 334.570 171.859 336.426 " stroke="none" fill="#e99e9e" fill-rule="evenodd"></path><path id="path3" d="M334.567 131.250 C 334.567 179.268,334.612 198.911,334.668 174.902 C 334.724 150.894,334.724 111.606,334.668 87.598 C 334.612 63.589,334.567 83.232,334.567 131.250 M215.354 50.292 C 217.891 50.360,221.934 50.360,224.338 50.291 C 226.743 50.223,224.668 50.167,219.727 50.167 C 214.785 50.168,212.818 50.224,215.354 50.292 M307.910 50.292 C 311.724 50.356,317.964 50.356,321.777 50.292 C 325.591 50.228,322.471 50.176,314.844 50.176 C 307.217 50.176,304.097 50.228,307.910 50.292 M66.114 70.117 C 66.118 70.977,66.198 71.282,66.292 70.796 C 66.385 70.310,66.382 69.607,66.284 69.234 C 66.186 68.860,66.110 69.258,66.114 70.117 M66.106 76.172 C 66.106 76.924,66.187 77.231,66.285 76.855 C 66.383 76.479,66.383 75.864,66.285 75.488 C 66.187 75.112,66.106 75.420,66.106 76.172 M66.114 88.867 C 66.118 89.727,66.198 90.032,66.292 89.546 C 66.385 89.060,66.382 88.357,66.284 87.984 C 66.186 87.610,66.110 88.008,66.114 88.867 M66.114 95.117 C 66.118 95.977,66.198 96.282,66.292 95.796 C 66.385 95.310,66.382 94.607,66.284 94.234 C 66.186 93.860,66.110 94.258,66.114 95.117 M66.106 100.000 C 66.106 100.752,66.187 101.060,66.285 100.684 C 66.383 100.308,66.383 99.692,66.285 99.316 C 66.187 98.940,66.106 99.248,66.106 100.000 M66.137 108.398 C 66.139 109.688,66.212 110.168,66.299 109.466 C 66.386 108.764,66.384 107.709,66.295 107.122 C 66.206 106.535,66.134 107.109,66.137 108.398 M66.175 118.750 C 66.175 122.295,66.234 123.745,66.306 121.973 C 66.379 120.200,66.379 117.300,66.306 115.527 C 66.234 113.755,66.175 115.205,66.175 118.750 M66.186 136.914 C 66.186 142.500,66.241 144.731,66.308 141.871 C 66.375 139.012,66.374 134.442,66.307 131.715 C 66.240 128.989,66.186 131.328,66.186 136.914 M225.573 157.813 C 225.573 169.307,225.622 174.009,225.683 168.262 C 225.744 162.515,225.744 153.110,225.683 147.363 C 225.622 141.616,225.573 146.318,225.573 157.813 M127.344 140.039 C 128.073 140.791,128.757 141.406,128.864 141.406 C 128.972 141.406,128.463 140.791,127.734 140.039 C 127.006 139.287,126.321 138.672,126.214 138.672 C 126.107 138.672,126.615 139.287,127.344 140.039 M124.805 145.313 C 125.644 146.172,126.418 146.875,126.526 146.875 C 126.633 146.875,126.034 146.172,125.195 145.313 C 124.356 144.453,123.582 143.750,123.474 143.750 C 123.367 143.750,123.966 144.453,124.805 145.313 M66.178 164.648 C 66.179 168.730,66.237 170.347,66.307 168.241 C 66.377 166.136,66.377 162.796,66.306 160.820 C 66.236 158.843,66.178 160.566,66.178 164.648 M119.531 157.920 C 119.531 157.979,120.894 159.341,122.559 160.947 L 125.586 163.867 122.666 160.840 C 119.954 158.028,119.531 157.634,119.531 157.920 M117.188 168.872 C 117.188 168.939,117.759 169.511,118.457 170.142 L 119.727 171.289 118.579 170.020 C 117.510 168.836,117.188 168.570,117.188 168.872 M111.512 199.609 C 111.512 213.682,111.561 219.438,111.621 212.402 C 111.681 205.366,111.681 193.853,111.621 186.816 C 111.561 179.780,111.512 185.537,111.512 199.609 M73.421 218.848 C 74.379 219.868,75.214 220.703,75.277 220.703 C 75.570 220.703,75.260 220.352,73.535 218.734 L 71.680 216.992 73.421 218.848 M272.260 226.855 L 266.992 232.227 272.363 226.959 C 277.353 222.065,277.911 221.484,277.631 221.484 C 277.575 221.484,275.158 223.901,272.260 226.855 M261.719 232.227 C 260.770 233.193,260.081 233.984,260.189 233.984 C 260.296 233.984,261.161 233.193,262.109 232.227 C 263.058 231.260,263.747 230.469,263.639 230.469 C 263.532 230.469,262.668 231.260,261.719 232.227 M316.791 236.621 L 311.914 241.602 316.895 236.725 C 321.521 232.194,322.052 231.641,321.771 231.641 C 321.715 231.641,319.473 233.882,316.791 236.621 M87.891 233.398 C 88.619 234.150,89.304 234.766,89.411 234.766 C 89.518 234.766,89.010 234.150,88.281 233.398 C 87.552 232.646,86.868 232.031,86.761 232.031 C 86.653 232.031,87.162 232.646,87.891 233.398 M276.739 235.254 L 275.195 236.914 276.855 235.370 C 278.399 233.934,278.695 233.594,278.400 233.594 C 278.336 233.594,277.589 234.341,276.739 235.254 M289.056 237.030 L 289.245 239.258 289.373 237.348 C 289.443 236.297,289.358 235.295,289.184 235.120 C 289.010 234.945,288.952 235.805,289.056 237.030 M260.916 238.184 L 259.570 239.648 261.035 238.302 C 262.399 237.049,262.680 236.719,262.381 236.719 C 262.316 236.719,261.657 237.378,260.916 238.184 M75.000 240.039 C 76.384 241.436,77.604 242.578,77.712 242.578 C 77.819 242.578,76.775 241.436,75.391 240.039 C 74.007 238.643,72.786 237.500,72.679 237.500 C 72.571 237.500,73.616 238.643,75.000 240.039 M310.135 243.262 L 308.789 244.727 310.254 243.380 C 311.617 242.127,311.898 241.797,311.600 241.797 C 311.535 241.797,310.876 242.456,310.135 243.262 M304.688 248.633 C 303.739 249.600,303.050 250.391,303.158 250.391 C 303.265 250.391,304.129 249.600,305.078 248.633 C 306.027 247.666,306.715 246.875,306.608 246.875 C 306.501 246.875,305.636 247.666,304.688 248.633 M293.542 259.863 L 291.211 262.305 293.652 259.973 C 294.995 258.691,296.094 257.592,296.094 257.532 C 296.094 257.243,295.708 257.595,293.542 259.863 M204.095 302.930 C 204.095 327.852,204.142 338.104,204.199 325.714 C 204.256 313.323,204.256 292.932,204.199 280.401 C 204.142 267.870,204.095 278.008,204.095 302.930 M289.432 263.965 L 288.086 265.430 289.551 264.084 C 290.914 262.831,291.195 262.500,290.897 262.500 C 290.832 262.500,290.172 263.159,289.432 263.965 M266.788 270.605 L 263.477 274.023 266.895 270.712 C 270.069 267.636,270.490 267.188,270.206 267.188 C 270.148 267.188,268.610 268.726,266.788 270.605 M251.151 272.949 L 249.805 274.414 251.270 273.068 C 252.633 271.815,252.914 271.484,252.616 271.484 C 252.550 271.484,251.891 272.144,251.151 272.949 M128.320 281.250 C 129.159 282.109,129.934 282.813,130.041 282.813 C 130.149 282.813,129.550 282.109,128.711 281.250 C 127.872 280.391,127.097 279.688,126.990 279.688 C 126.882 279.688,127.481 280.391,128.320 281.250 M254.858 282.910 L 253.711 284.180 254.980 283.032 C 255.679 282.401,256.250 281.830,256.250 281.763 C 256.250 281.461,255.928 281.727,254.858 282.910 M152.930 305.859 C 154.422 307.363,155.731 308.594,155.838 308.594 C 155.946 308.594,154.813 307.363,153.320 305.859 C 151.828 304.355,150.519 303.125,150.412 303.125 C 150.304 303.125,151.437 304.355,152.930 305.859 M165.625 318.555 C 166.792 319.736,167.835 320.703,167.942 320.703 C 168.049 320.703,167.183 319.736,166.016 318.555 C 164.849 317.373,163.806 316.406,163.699 316.406 C 163.591 316.406,164.458 317.373,165.625 318.555 M162.874 327.441 C 164.493 329.166,164.844 329.476,164.844 329.183 C 164.844 329.120,164.009 328.285,162.988 327.327 L 161.133 325.586 162.874 327.441 M216.196 329.395 L 214.258 331.445 216.309 329.507 C 217.437 328.441,218.359 327.518,218.359 327.456 C 218.359 327.165,217.997 327.489,216.196 329.395 M197.046 340.039 C 197.046 345.840,197.100 348.267,197.167 345.434 C 197.233 342.600,197.234 337.854,197.167 334.887 C 197.101 331.920,197.046 334.238,197.046 340.039 M213.849 350.879 L 212.305 352.539 213.965 350.995 C 214.878 350.146,215.625 349.399,215.625 349.335 C 215.625 349.039,215.285 349.335,213.849 350.879 " stroke="none" fill="#f2c8c8" fill-rule="evenodd"></path><path id="path4" d="M57.614 129.297 C 57.614 180.537,57.659 201.499,57.715 175.879 C 57.770 150.259,57.770 108.335,57.715 82.715 C 57.659 57.095,57.614 78.057,57.614 129.297 M91.990 50.291 L 111.324 50.398 111.427 84.281 L 111.530 118.164 111.527 84.180 L 111.523 50.195 92.090 50.190 L 72.656 50.184 91.990 50.291 M237.598 50.290 C 239.263 50.364,241.987 50.364,243.652 50.290 C 245.317 50.217,243.955 50.157,240.625 50.157 C 237.295 50.157,235.933 50.217,237.598 50.290 M292.480 50.290 C 294.038 50.364,296.587 50.364,298.145 50.290 C 299.702 50.216,298.428 50.155,295.313 50.155 C 292.197 50.155,290.923 50.216,292.480 50.290 M160.813 50.683 C 166.008 50.745,174.621 50.745,179.953 50.683 C 185.286 50.622,181.035 50.572,170.508 50.572 C 159.980 50.571,155.618 50.622,160.813 50.683 M150.969 89.258 C 150.969 110.312,151.016 118.868,151.074 108.271 C 151.132 97.674,151.132 80.447,151.074 69.990 C 151.016 59.533,150.969 68.203,150.969 89.258 M250.112 70.508 C 250.115 71.582,250.191 71.975,250.280 71.381 C 250.370 70.788,250.368 69.909,250.275 69.428 C 250.182 68.948,250.109 69.434,250.112 70.508 M250.099 86.133 C 250.103 86.992,250.183 87.298,250.276 86.812 C 250.370 86.326,250.366 85.623,250.268 85.249 C 250.171 84.876,250.094 85.273,250.099 86.133 M119.906 127.441 C 120.863 128.462,121.698 129.297,121.761 129.297 C 122.054 129.297,121.744 128.946,120.020 127.327 L 118.164 125.586 119.906 127.441 M123.242 135.938 C 124.081 136.797,124.856 137.500,124.963 137.500 C 125.071 137.500,124.472 136.797,123.633 135.938 C 122.794 135.078,122.019 134.375,121.912 134.375 C 121.804 134.375,122.403 135.078,123.242 135.938 M158.301 136.230 C 161.255 136.296,166.089 136.296,169.043 136.230 C 171.997 136.163,169.580 136.109,163.672 136.109 C 157.764 136.109,155.347 136.163,158.301 136.230 M231.763 136.230 C 235.160 136.295,240.609 136.295,243.872 136.230 C 247.135 136.164,244.355 136.111,237.695 136.111 C 231.035 136.111,228.365 136.165,231.763 136.230 M111.084 140.430 C 111.085 142.793,111.149 143.709,111.227 142.466 C 111.304 141.223,111.304 139.289,111.225 138.169 C 111.146 137.049,111.083 138.066,111.084 140.430 M150.953 147.266 C 150.953 153.389,151.007 155.894,151.073 152.832 C 151.139 149.771,151.139 144.761,151.073 141.699 C 151.007 138.638,150.953 141.143,150.953 147.266 M249.700 139.453 C 249.700 140.205,249.780 140.513,249.879 140.137 C 249.977 139.761,249.977 139.146,249.879 138.770 C 249.780 138.394,249.700 138.701,249.700 139.453 M249.700 142.969 C 249.700 143.721,249.780 144.028,249.879 143.652 C 249.977 143.276,249.977 142.661,249.879 142.285 C 249.780 141.909,249.700 142.217,249.700 142.969 M143.555 155.859 C 145.263 157.578,146.749 158.984,146.857 158.984 C 146.964 158.984,145.654 157.578,143.945 155.859 C 142.237 154.141,140.751 152.734,140.643 152.734 C 140.536 152.734,141.846 154.141,143.555 155.859 M137.891 158.398 C 139.058 159.580,140.100 160.547,140.208 160.547 C 140.315 160.547,139.448 159.580,138.281 158.398 C 137.114 157.217,136.072 156.250,135.964 156.250 C 135.857 156.250,136.724 157.217,137.891 158.398 M129.102 167.578 C 131.026 169.512,132.689 171.094,132.796 171.094 C 132.904 171.094,131.417 169.512,129.492 167.578 C 127.568 165.645,125.905 164.063,125.798 164.063 C 125.690 164.063,127.177 165.645,129.102 167.578 M142.969 168.164 C 144.136 169.346,145.178 170.313,145.286 170.313 C 145.393 170.313,144.526 169.346,143.359 168.164 C 142.192 166.982,141.150 166.016,141.042 166.016 C 140.935 166.016,141.802 166.982,142.969 168.164 M136.133 169.531 C 136.972 170.391,137.746 171.094,137.854 171.094 C 137.961 171.094,137.363 170.391,136.523 169.531 C 135.684 168.672,134.910 167.969,134.802 167.969 C 134.695 167.969,135.294 168.672,136.133 169.531 M178.516 198.560 C 178.516 198.627,179.087 199.198,179.785 199.829 L 181.055 200.977 179.907 199.707 C 178.838 198.524,178.516 198.258,178.516 198.560 M289.203 213.672 C 289.203 215.713,289.269 216.548,289.350 215.527 C 289.430 214.507,289.430 212.837,289.350 211.816 C 289.269 210.796,289.203 211.631,289.203 213.672 M283.774 223.145 L 281.836 225.195 283.887 223.257 C 285.792 221.456,286.117 221.094,285.825 221.094 C 285.763 221.094,284.841 222.017,283.774 223.145 M288.967 223.633 C 289.070 224.170,289.221 224.609,289.303 224.609 C 289.386 224.609,289.453 224.170,289.453 223.633 C 289.453 223.096,289.302 222.656,289.117 222.656 C 288.932 222.656,288.864 223.096,288.967 223.633 M334.175 230.566 L 327.930 236.914 334.277 230.669 C 340.174 224.866,340.802 224.219,340.523 224.219 C 340.467 224.219,337.610 227.075,334.175 230.566 M289.196 227.930 C 289.198 229.648,289.267 230.303,289.349 229.384 C 289.432 228.465,289.430 227.059,289.346 226.259 C 289.263 225.459,289.195 226.211,289.196 227.930 M278.116 241.309 L 274.805 244.727 278.223 241.415 C 281.397 238.339,281.819 237.891,281.534 237.891 C 281.476 237.891,279.938 239.429,278.116 241.309 M289.180 241.016 C 289.180 242.197,289.253 242.681,289.342 242.090 C 289.432 241.499,289.432 240.532,289.342 239.941 C 289.253 239.351,289.180 239.834,289.180 241.016 M284.560 247.363 L 281.836 250.195 284.668 247.471 C 287.298 244.941,287.678 244.531,287.392 244.531 C 287.332 244.531,286.058 245.806,284.560 247.363 M282.593 254.395 L 281.445 255.664 282.715 254.517 C 283.413 253.886,283.984 253.314,283.984 253.247 C 283.984 252.945,283.662 253.211,282.593 254.395 M263.281 260.742 C 262.332 261.709,261.644 262.500,261.751 262.500 C 261.859 262.500,262.723 261.709,263.672 260.742 C 264.621 259.775,265.309 258.984,265.202 258.984 C 265.094 258.984,264.230 259.775,263.281 260.742 M298.438 266.211 C 296.837 267.822,295.615 269.141,295.723 269.141 C 295.830 269.141,297.228 267.822,298.828 266.211 C 300.429 264.600,301.650 263.281,301.543 263.281 C 301.436 263.281,300.038 264.600,298.438 266.211 M265.614 266.309 L 263.086 268.945 265.723 266.418 C 268.172 264.070,268.538 263.672,268.250 263.672 C 268.191 263.672,267.004 264.858,265.614 266.309 M250.952 268.457 L 249.805 269.727 251.074 268.579 C 251.772 267.948,252.344 267.377,252.344 267.310 C 252.344 267.008,252.021 267.274,250.952 268.457 M112.695 277.344 C 114.620 279.277,116.283 280.859,116.390 280.859 C 116.497 280.859,115.011 279.277,113.086 277.344 C 111.161 275.410,109.499 273.828,109.391 273.828 C 109.284 273.828,110.771 275.410,112.695 277.344 M253.708 299.707 L 242.773 310.742 253.809 299.807 C 259.878 293.793,264.844 288.827,264.844 288.772 C 264.844 288.496,263.870 289.452,253.708 299.707 M128.906 293.555 C 130.073 294.736,131.116 295.703,131.223 295.703 C 131.331 295.703,130.464 294.736,129.297 293.555 C 128.130 292.373,127.087 291.406,126.980 291.406 C 126.872 291.406,127.739 292.373,128.906 293.555 M156.836 301.953 C 157.894 303.027,158.848 303.906,158.955 303.906 C 159.062 303.906,158.285 303.027,157.227 301.953 C 156.168 300.879,155.215 300.000,155.107 300.000 C 155.000 300.000,155.778 300.879,156.836 301.953 M234.565 318.848 L 229.102 324.414 234.668 318.951 C 239.839 313.875,240.411 313.281,240.131 313.281 C 240.075 313.281,237.570 315.786,234.565 318.848 M243.546 321.191 L 240.430 324.414 243.652 321.298 C 246.645 318.404,247.053 317.969,246.768 317.969 C 246.709 317.969,245.259 319.419,243.546 321.191 M156.445 321.094 C 157.503 322.168,158.457 323.047,158.564 323.047 C 158.672 323.047,157.894 322.168,156.836 321.094 C 155.778 320.020,154.824 319.141,154.717 319.141 C 154.609 319.141,155.387 320.020,156.445 321.094 M166.992 331.641 C 167.831 332.500,168.606 333.203,168.713 333.203 C 168.821 333.203,168.222 332.500,167.383 331.641 C 166.544 330.781,165.769 330.078,165.662 330.078 C 165.554 330.078,166.153 330.781,166.992 331.641 M223.824 340.918 L 216.602 348.242 223.926 341.020 C 230.731 334.309,231.426 333.594,231.148 333.594 C 231.092 333.594,227.797 336.890,223.824 340.918 M212.879 340.137 L 210.352 342.773 212.988 340.246 C 215.437 337.898,215.804 337.500,215.516 337.500 C 215.456 337.500,214.270 338.687,212.879 340.137 M204.486 360.254 L 200.195 364.648 204.590 360.358 C 207.007 357.999,208.984 356.021,208.984 355.964 C 208.984 355.682,208.470 356.172,204.486 360.254 " stroke="none" fill="#e07d74" fill-rule="evenodd"></path></g></svg>