<svg id="svg" version="1.1" xmlns="http://www.w3.org/2000/svg" xmlns:xlink="http://www.w3.org/1999/xlink" width="400" height="400" viewBox="0, 0, 400,400"><g id="svgg"><path id="path0" d="M57.813 129.004 L 57.813 222.071 129.004 293.262 L 200.196 364.453 271.389 293.260 L 342.581 222.066 342.677 129.002 L 342.773 35.937 200.293 35.937 L 57.813 35.938 57.813 129.004 M334.375 131.348 L 334.375 218.556 267.167 285.743 L 199.959 352.930 133.004 285.742 L 66.048 218.555 66.032 131.348 L 66.016 44.141 200.195 44.141 L 334.375 44.141 334.375 131.348 M71.976 50.544 C 71.857 50.735,71.885 88.265,72.037 133.942 L 72.313 216.992 91.625 236.328 L 110.938 255.663 110.938 208.691 C 110.938 182.856,111.066 161.719,111.223 161.719 C 111.380 161.719,113.101 163.305,115.048 165.243 L 118.587 168.768 119.727 167.577 L 120.868 166.387 115.903 161.411 L 110.938 156.434 110.938 152.827 C 110.938 150.842,111.069 149.218,111.230 149.217 C 111.392 149.217,114.478 152.231,118.088 155.915 L 124.653 162.614 125.783 161.287 L 126.914 159.961 118.926 151.973 L 110.938 143.984 110.938 140.351 C 110.938 138.353,111.056 136.719,111.200 136.719 C 111.345 136.719,115.818 141.156,121.141 146.579 L 130.819 156.440 132.081 155.148 L 133.344 153.857 122.141 142.649 L 110.938 131.440 110.938 127.895 C 110.938 125.945,111.022 124.265,111.125 124.162 C 111.227 124.059,116.193 128.877,122.160 134.868 C 128.126 140.859,134.027 146.652,135.273 147.740 L 137.538 149.719 138.702 148.604 L 139.867 147.488 125.402 133.019 L 110.938 118.551 110.937 84.373 L 110.936 50.195 91.564 50.195 C 80.636 50.195,72.097 50.347,71.976 50.544 M151.335 50.358 C 151.245 50.448,151.181 56.424,151.191 63.639 L 151.211 76.758 153.438 77.811 C 154.662 78.391,156.338 79.482,157.161 80.237 L 158.658 81.609 160.091 80.662 C 162.769 78.892,166.204 78.278,168.945 79.079 C 171.192 79.735,171.644 80.113,179.883 88.233 C 184.609 92.891,188.872 97.032,189.355 97.435 L 190.234 98.168 190.234 74.182 L 190.235 50.195 170.866 50.195 C 160.214 50.195,151.425 50.269,151.335 50.358 M210.547 77.874 C 210.547 104.077,210.583 105.538,211.230 105.282 C 211.606 105.133,213.145 104.755,214.648 104.442 C 221.850 102.944,221.523 103.128,227.734 97.090 C 244.012 81.270,241.700 82.643,246.131 86.163 L 249.414 88.771 249.519 79.151 C 249.576 73.860,249.576 65.181,249.519 59.863 L 249.414 50.195 229.981 50.195 L 210.548 50.195 210.547 77.874 M289.549 101.111 L 289.648 152.026 291.162 152.546 C 297.140 154.601,298.743 162.421,294.297 167.846 L 292.908 169.542 293.974 170.806 C 297.514 175.004,296.829 179.845,291.950 185.115 L 289.453 187.812 289.453 196.261 L 289.453 204.711 279.519 214.487 L 269.586 224.264 270.437 225.964 L 271.289 227.665 280.081 218.910 C 284.917 214.096,289.004 210.156,289.163 210.156 C 289.323 210.156,289.453 211.781,289.453 213.766 L 289.453 217.376 281.288 225.583 L 273.123 233.789 273.704 235.717 L 274.285 237.646 281.674 230.228 C 285.738 226.148,289.074 222.907,289.087 223.026 C 289.101 223.145,289.092 224.912,289.066 226.953 L 289.020 230.664 282.950 236.579 C 276.452 242.911,276.472 242.877,278.427 244.646 C 279.171 245.320,279.320 245.208,284.003 240.443 C 289.756 234.588,289.500 234.646,289.423 239.215 L 289.361 242.884 286.282 245.944 C 282.854 249.352,282.798 249.483,284.187 250.789 L 285.172 251.713 287.033 249.880 C 289.487 247.463,289.453 247.433,289.453 252.049 L 289.453 256.052 309.180 236.328 L 328.906 216.604 328.906 133.498 L 328.906 50.391 325.098 50.374 C 323.003 50.364,314.125 50.320,305.370 50.276 L 289.450 50.195 289.549 101.111 M147.712 84.192 C 146.360 85.331,145.520 87.475,145.924 88.763 C 146.351 90.130,147.352 91.215,159.023 102.967 C 170.125 114.147,170.658 114.838,169.208 116.150 C 168.058 117.191,168.220 117.329,155.579 104.548 C 147.850 96.733,143.087 92.204,142.421 92.037 C 138.779 91.123,135.507 94.933,137.153 98.170 C 137.391 98.639,143.192 104.655,150.043 111.537 C 156.894 118.420,162.500 124.169,162.500 124.312 C 162.500 124.881,161.573 126.563,161.260 126.563 C 160.856 126.563,150.604 116.721,144.869 110.828 C 139.070 104.869,138.341 104.457,135.758 105.683 C 133.609 106.703,132.963 109.313,134.312 111.525 C 134.706 112.170,140.683 118.234,147.595 125.001 C 154.507 131.767,160.008 137.354,159.820 137.417 C 159.632 137.479,156.928 136.469,153.811 135.172 C 146.124 131.972,143.359 132.210,143.359 136.072 C 143.359 138.027,144.071 138.665,150.977 142.897 C 154.414 145.003,159.800 148.353,162.945 150.341 C 166.366 152.503,169.465 154.166,170.659 154.480 L 172.653 155.007 173.254 153.742 C 173.584 153.046,174.542 151.805,175.383 150.984 L 176.912 149.491 175.628 147.990 C 170.930 142.502,171.875 140.570,186.616 125.529 C 193.112 118.900,198.395 113.301,198.355 113.086 C 198.218 112.343,170.760 86.212,168.945 85.097 C 165.951 83.259,162.500 85.228,162.500 88.775 C 162.500 89.338,165.247 92.365,170.986 98.126 L 179.472 106.643 178.377 107.716 L 177.282 108.789 164.663 95.996 C 150.515 81.654,150.632 81.735,147.712 84.192 M234.759 97.128 C 225.121 106.901,224.394 107.346,214.453 109.580 C 207.569 111.127,205.507 112.723,189.942 128.550 C 177.010 141.700,176.456 142.582,179.401 145.326 C 181.470 147.254,182.332 146.741,190.245 138.867 C 197.359 131.789,198.189 131.158,199.141 132.109 C 200.133 133.102,199.293 134.102,188.707 144.531 C 180.791 152.331,177.756 155.568,177.628 156.348 C 177.074 159.729,179.986 162.697,183.105 161.930 C 183.802 161.759,187.972 157.886,194.972 150.909 C 206.207 139.711,206.912 139.183,207.622 141.422 C 207.970 142.516,207.769 142.745,196.142 154.479 C 186.186 164.527,185.547 165.258,185.547 166.590 C 185.547 170.159,188.982 172.560,191.920 171.044 C 192.389 170.802,197.722 165.574,203.770 159.426 C 214.753 148.262,214.768 148.248,215.587 148.989 C 216.983 150.253,216.643 150.716,207.813 159.579 C 199.399 168.023,199.219 168.238,199.219 169.814 C 199.219 172.570,202.354 175.155,204.769 174.388 C 205.250 174.235,211.843 168.034,219.419 160.608 C 234.340 145.983,234.018 146.266,235.105 146.848 C 237.013 147.869,236.603 148.866,232.434 153.355 C 228.224 157.888,227.456 159.683,228.699 162.086 C 230.260 165.105,232.634 164.413,236.228 159.893 C 237.736 157.997,240.577 154.688,242.541 152.539 C 247.371 147.255,248.695 144.584,249.225 139.063 C 250.038 130.604,250.850 129.162,260.072 119.821 L 266.534 113.275 264.029 110.610 C 258.957 105.216,243.070 89.453,242.704 89.453 C 242.497 89.453,238.922 92.907,234.759 97.128 M261.851 146.443 C 260.812 147.280,252.378 155.586,243.111 164.901 C 225.926 182.172,223.705 184.732,222.656 188.478 L 222.146 190.300 224.117 192.272 L 226.089 194.244 227.595 193.053 C 230.113 191.062,233.853 190.461,236.593 191.605 C 237.483 191.977,241.740 195.906,248.126 202.250 C 253.694 207.780,258.406 212.305,258.598 212.305 C 258.790 212.305,262.076 209.016,265.899 204.997 C 269.723 200.978,276.768 193.647,281.555 188.707 C 286.667 183.432,290.498 179.152,290.838 178.339 C 291.646 176.404,290.832 174.429,288.892 173.618 C 286.433 172.591,285.283 173.402,276.924 182.061 C 269.246 190.015,268.639 190.456,267.346 189.014 L 266.602 188.184 279.199 175.794 L 291.797 163.403 291.797 161.546 C 291.797 158.910,290.218 157.422,287.421 157.422 C 285.211 157.422,286.310 156.513,273.460 168.960 C 260.329 181.677,261.159 181.011,260.021 179.754 C 258.878 178.491,259.195 178.105,271.276 166.029 C 279.061 158.247,283.256 153.774,283.404 153.098 C 283.966 150.539,281.604 147.619,279.023 147.684 C 277.167 147.730,276.953 147.913,264.264 160.309 C 252.274 172.021,251.883 172.360,250.956 171.864 C 249.309 170.983,249.763 170.389,259.766 160.336 C 269.451 150.603,269.531 150.508,269.531 148.864 C 269.531 144.889,265.400 143.587,261.851 146.443 M151.172 152.500 L 151.172 155.767 154.806 159.241 C 160.522 164.705,163.673 166.406,168.081 166.406 C 171.520 166.406,176.551 168.109,179.726 170.347 L 180.740 171.062 180.288 169.052 C 179.867 167.185,179.722 167.004,178.252 166.514 C 175.975 165.755,173.617 163.583,172.829 161.519 C 172.461 160.555,171.983 159.766,171.766 159.766 C 170.200 159.766,165.502 157.813,162.086 155.742 C 159.843 154.382,156.470 152.361,154.590 151.251 L 151.172 149.233 151.172 152.500 M130.071 164.049 L 118.638 175.419 124.442 181.362 C 127.634 184.631,131.011 188.096,131.946 189.063 C 134.273 191.468,136.222 195.567,136.962 199.614 C 138.846 209.919,139.060 210.226,156.794 228.009 C 171.136 242.391,171.756 242.892,173.785 241.753 C 176.676 240.131,175.782 238.529,167.130 229.825 C 160.371 223.025,159.736 222.270,160.135 221.524 C 160.927 220.044,161.621 220.594,172.370 231.217 C 184.928 243.628,185.964 244.532,187.635 244.530 C 190.267 244.527,192.596 241.915,192.019 239.614 C 191.864 238.998,187.287 233.994,180.549 227.074 C 168.790 215.000,168.665 214.845,169.753 213.643 C 170.880 212.398,170.973 212.475,183.028 224.707 C 195.711 237.575,196.062 237.884,197.995 237.888 C 199.934 237.892,202.344 235.410,202.344 233.410 C 202.344 232.040,191.321 220.058,179.528 208.610 C 177.561 206.700,177.348 205.940,178.490 204.906 C 179.522 203.972,179.402 203.871,190.673 215.148 C 195.886 220.365,200.548 224.732,201.032 224.853 C 203.465 225.464,206.628 222.949,206.657 220.380 C 206.672 219.004,206.076 218.356,192.175 204.619 L 177.678 190.293 178.316 189.320 C 179.669 187.254,180.231 187.471,185.668 192.153 C 192.595 198.118,194.692 198.608,196.347 194.648 C 197.172 192.674,196.651 191.975,189.243 185.113 C 176.725 173.519,174.723 172.262,167.186 171.272 C 159.848 170.308,158.434 169.444,149.170 160.271 L 141.504 152.679 130.071 164.049 M246.680 154.631 C 244.302 157.225,244.173 157.876,246.485 155.612 C 247.612 154.509,248.467 153.453,248.388 153.266 C 248.308 153.079,247.539 153.693,246.680 154.631 M215.636 170.671 C 207.714 178.905,206.650 179.690,203.410 179.685 C 200.696 179.682,198.905 178.967,196.972 177.115 C 195.811 176.002,194.932 175.453,194.548 175.601 C 194.099 175.773,194.653 176.500,196.713 178.444 C 198.236 179.880,201.894 183.365,204.842 186.188 L 210.203 191.322 212.172 189.997 C 213.669 188.990,214.553 188.672,215.860 188.672 C 217.194 188.672,217.578 188.528,217.578 188.029 C 217.578 185.641,220.405 181.606,226.410 175.421 L 232.508 169.141 230.883 169.141 C 228.169 169.141,225.483 167.115,224.250 164.139 C 223.521 162.378,223.870 162.113,215.636 170.671 M188.348 177.998 C 190.332 180.019,190.234 179.998,190.234 178.409 C 190.234 177.213,190.120 177.104,188.462 176.720 L 186.690 176.308 188.348 177.998 M213.912 194.956 C 213.342 195.405,212.615 196.275,212.297 196.890 C 210.975 199.446,210.862 199.294,223.633 212.109 C 230.186 218.685,235.547 224.287,235.547 224.558 C 235.547 228.579,233.921 227.484,221.677 215.209 C 210.404 203.908,209.055 202.733,207.344 202.736 C 204.968 202.740,202.413 205.910,202.884 208.268 C 203.149 209.591,206.960 214.104,207.693 213.962 C 208.364 213.832,227.344 232.780,227.344 233.580 C 227.344 234.385,226.590 235.156,225.805 235.156 C 225.474 235.156,222.169 232.126,218.461 228.422 C 212.743 222.711,211.719 221.839,211.719 222.682 C 211.719 224.619,207.895 229.297,206.311 229.297 C 205.570 229.297,205.782 229.645,207.324 230.965 C 213.037 235.853,228.125 250.805,228.125 251.578 C 228.125 254.460,225.871 253.713,219.727 248.795 C 213.851 244.092,211.975 243.458,209.943 245.490 C 207.361 248.072,208.531 249.961,216.999 256.874 C 227.438 265.396,229.091 266.228,236.719 266.792 C 244.832 267.393,246.464 268.302,255.574 277.299 L 261.734 283.382 273.852 271.263 L 285.971 259.145 278.751 251.936 C 270.568 243.764,269.775 242.536,268.409 235.925 C 266.880 228.524,265.520 226.079,259.630 220.150 C 250.945 211.406,235.452 196.820,234.442 196.435 C 231.944 195.486,229.688 196.989,229.688 199.602 C 229.688 200.871,230.326 201.639,237.492 208.988 C 245.446 217.146,245.737 217.521,244.745 218.344 C 243.715 219.199,243.068 218.649,231.155 206.786 C 224.655 200.314,218.952 194.821,218.483 194.579 C 217.135 193.886,215.054 194.058,213.912 194.956 M136.211 231.886 L 127.304 240.679 129.739 243.289 C 131.078 244.724,136.571 250.422,141.945 255.951 L 151.717 266.003 157.402 260.417 C 164.956 252.993,166.278 252.116,172.555 250.373 C 178.710 248.663,181.405 246.461,179.577 244.634 L 178.561 243.618 177.004 245.025 C 175.552 246.337,173.395 247.258,171.765 247.263 C 169.688 247.270,167.750 245.643,156.641 234.574 L 145.117 223.092 136.211 231.886 M206.866 238.106 C 206.248 240.569,202.430 242.952,198.945 243.051 C 196.771 243.113,197.075 244.017,200.294 247.057 L 203.320 249.916 203.549 247.667 C 203.953 243.699,205.871 241.521,209.358 241.071 L 211.303 240.820 209.207 238.975 C 207.113 237.133,207.110 237.132,206.866 238.106 M183.448 249.857 C 182.227 251.532,178.361 253.742,174.728 254.843 C 168.842 256.625,167.914 257.263,159.809 265.088 C 154.951 269.778,152.104 272.257,151.738 272.117 C 151.251 271.930,151.172 273.581,151.172 283.900 L 151.172 295.901 170.703 315.430 L 190.234 334.958 190.234 292.479 L 190.234 250.000 188.770 249.983 C 187.964 249.973,186.602 249.712,185.742 249.403 C 184.883 249.093,184.180 248.843,184.180 248.846 C 184.180 248.850,183.850 249.304,183.448 249.857 M210.559 296.326 L 210.570 334.961 230.090 315.300 L 249.609 295.640 249.609 286.737 L 249.609 277.834 247.949 276.310 C 243.615 272.333,242.589 271.935,235.547 271.500 C 227.232 270.986,224.730 269.624,211.230 258.267 C 210.580 257.719,210.547 259.572,210.559 296.326 " stroke="none" fill="#d21014" fill-rule="evenodd"></path><path id="path1" d="M0.000 200.000 L 0.000 400.000 200.000 400.000 L 400.000 400.000 400.000 200.000 L 400.000 0.000 200.000 0.000 L 0.000 0.000 0.000 200.000 M342.969 128.754 L 342.969 221.962 271.582 293.430 L 200.195 364.899 128.811 293.289 L 57.426 221.680 57.424 128.874 C 57.423 77.830,57.539 35.951,57.682 35.807 C 57.826 35.664,122.074 35.547,200.456 35.547 L 342.969 35.547 342.969 128.754 M66.406 131.731 L 66.406 218.930 133.105 285.637 C 169.789 322.326,199.960 352.344,200.151 352.344 C 200.343 352.344,230.621 322.248,267.437 285.464 L 334.375 218.584 334.375 131.558 L 334.375 44.531 200.391 44.531 L 66.406 44.531 66.406 131.731 M111.328 84.381 L 111.328 118.763 125.586 133.053 C 133.428 140.913,139.844 147.469,139.844 147.622 C 139.844 148.022,137.543 150.171,137.329 149.972 C 137.230 149.880,131.339 144.010,124.239 136.927 L 111.328 124.050 111.328 127.754 L 111.328 131.459 122.445 142.583 L 133.562 153.707 132.329 154.978 C 130.675 156.685,131.648 157.401,120.919 146.582 L 111.332 136.914 111.330 140.572 L 111.328 144.230 119.142 151.900 C 127.713 160.314,127.447 159.927,125.771 161.533 L 124.589 162.666 117.958 156.044 L 111.328 149.423 111.328 152.929 L 111.328 156.434 116.219 161.336 L 121.110 166.238 119.728 167.577 L 118.346 168.916 114.837 165.423 L 111.328 161.930 111.328 208.895 C 111.328 234.725,111.199 255.859,111.041 255.859 C 110.884 255.859,102.007 247.114,91.315 236.426 L 71.876 216.992 71.875 133.496 L 71.875 50.000 91.602 50.000 L 111.328 50.000 111.328 84.381 M190.430 74.219 C 190.430 87.539,190.369 98.437,190.294 98.437 C 190.220 98.437,185.825 94.258,180.529 89.150 C 170.427 79.408,169.731 78.906,166.324 78.906 C 164.541 78.906,160.609 80.275,159.559 81.260 L 158.730 82.040 157.128 80.516 C 156.246 79.677,154.546 78.512,153.349 77.926 L 151.172 76.861 151.172 63.431 L 151.172 50.000 170.801 50.000 L 190.430 50.000 190.430 74.219 M249.609 69.578 L 249.609 89.155 248.145 88.047 C 247.339 87.438,245.750 86.187,244.614 85.267 C 241.854 83.032,243.169 82.151,230.290 94.865 C 226.413 98.691,222.784 102.118,222.224 102.481 C 221.466 102.973,211.850 105.469,210.715 105.469 C 210.622 105.469,210.547 92.988,210.547 77.734 L 210.547 50.000 230.078 50.000 L 249.609 50.000 249.609 69.578 M328.906 133.495 L 328.906 216.989 309.279 236.620 C 298.484 247.416,289.519 256.250,289.357 256.250 C 289.195 256.250,289.063 254.492,289.063 252.344 C 289.063 247.867,289.061 247.865,286.743 250.198 L 285.010 251.944 283.941 250.679 L 282.872 249.414 284.502 247.676 C 285.399 246.721,286.792 245.337,287.598 244.602 L 289.063 243.265 289.063 239.509 L 289.063 235.753 284.082 240.675 L 279.102 245.597 277.852 244.160 L 276.603 242.724 282.833 236.503 L 289.063 230.283 289.063 226.574 L 289.063 222.865 281.792 230.378 C 274.504 237.910,273.843 238.475,273.811 237.207 C 273.802 236.831,273.561 235.872,273.277 235.075 L 272.760 233.626 280.911 225.722 L 289.063 217.817 289.063 213.904 L 289.063 209.990 280.223 218.862 C 275.362 223.742,271.334 227.734,271.274 227.734 C 271.213 227.734,270.797 226.978,270.350 226.054 L 269.536 224.373 279.299 214.638 L 289.063 204.904 289.063 196.331 L 289.063 187.758 291.544 185.188 C 296.634 179.915,297.403 175.239,293.861 171.102 L 292.503 169.514 293.885 167.984 C 298.750 162.599,296.788 153.706,290.474 152.522 L 289.063 152.257 289.063 101.128 L 289.063 50.000 308.984 50.000 L 328.906 50.000 328.906 133.495 M152.265 83.361 C 152.846 83.663,155.098 85.819,157.271 88.152 C 163.412 94.744,176.996 108.203,177.508 108.203 C 178.139 108.203,178.906 107.384,178.906 106.712 C 178.906 106.408,175.215 102.496,170.703 98.019 C 162.729 90.107,162.500 89.836,162.500 88.306 C 162.500 84.630,166.562 82.887,169.610 85.255 C 170.904 86.260,177.099 92.113,190.758 105.235 C 194.806 109.123,198.379 112.453,198.699 112.634 C 199.146 112.888,196.579 115.689,187.597 124.744 C 181.172 131.223,175.420 137.273,174.815 138.189 C 172.959 141.004,173.421 145.591,175.790 147.860 C 177.224 149.234,177.228 149.428,175.846 150.591 C 175.237 151.104,174.315 152.323,173.796 153.301 C 173.277 154.278,172.589 155.072,172.266 155.065 C 170.585 155.029,167.027 153.206,160.156 148.861 C 155.967 146.212,151.355 143.319,149.909 142.432 C 143.921 138.763,143.589 138.504,143.222 137.220 C 142.557 134.892,144.423 132.422,146.848 132.422 C 147.599 132.422,152.464 134.264,157.617 136.500 C 159.929 137.502,159.781 137.338,146.815 124.520 C 133.117 110.977,132.953 110.776,133.481 108.098 C 133.801 106.475,135.684 105.078,137.551 105.078 C 139.057 105.078,139.436 105.402,149.905 115.625 C 161.682 127.124,162.109 127.428,162.109 124.297 C 162.109 123.946,156.410 118.027,149.443 111.145 C 135.511 97.382,135.501 97.369,136.930 94.357 C 137.745 92.641,139.229 91.802,141.485 91.783 L 143.164 91.769 155.273 104.094 C 163.998 112.975,167.625 116.418,168.248 116.413 C 169.013 116.407,169.922 115.423,169.922 114.601 C 169.922 114.439,166.889 111.220,163.181 107.447 C 144.847 88.786,145.703 89.736,145.705 88.055 C 145.708 84.410,149.318 81.828,152.265 83.361 M259.121 105.391 C 263.020 109.322,266.211 112.794,266.211 113.106 C 266.211 113.418,263.828 116.090,260.916 119.044 C 251.378 128.718,250.261 130.547,249.612 137.548 C 248.950 144.682,247.977 146.825,242.828 152.492 C 240.852 154.666,238.117 157.852,236.750 159.570 C 233.000 164.285,232.300 164.702,229.944 163.629 C 226.439 162.032,227.470 158.359,233.137 152.246 C 235.905 149.262,236.382 148.257,235.469 147.344 C 234.353 146.228,233.196 147.195,220.143 160.164 C 212.787 167.473,206.432 173.708,206.021 174.019 C 203.558 175.882,198.828 173.167,198.828 169.890 C 198.828 168.981,200.252 166.406,200.755 166.406 C 201.816 166.406,216.409 150.345,216.016 149.611 C 215.276 148.227,214.759 148.656,203.689 159.823 C 190.713 172.913,189.742 173.501,186.741 170.083 C 183.643 166.554,182.817 167.752,201.292 148.964 C 207.263 142.891,207.840 142.187,207.442 141.444 C 206.564 139.803,205.586 140.566,194.763 151.335 C 187.034 159.025,183.672 162.116,182.838 162.299 C 180.282 162.860,177.344 160.188,177.344 157.302 C 177.344 155.514,177.827 154.965,189.769 143.182 C 196.815 136.229,199.223 133.621,199.138 133.030 C 198.852 131.042,197.605 131.914,190.207 139.274 C 182.100 147.341,181.568 147.630,179.089 145.301 C 176.163 142.552,176.966 141.360,191.679 126.604 C 206.973 111.265,207.847 110.653,217.296 108.651 C 224.081 107.214,225.177 106.480,234.457 97.174 L 242.639 88.969 247.335 93.606 C 249.917 96.156,255.221 101.459,259.121 105.391 M268.209 145.515 C 269.575 146.558,270.218 148.451,269.729 149.994 C 269.581 150.457,265.088 155.220,259.744 160.577 C 249.857 170.486,249.491 170.975,251.253 171.919 C 251.937 172.284,253.363 170.996,263.805 160.585 C 277.139 147.292,276.863 147.526,279.158 147.526 C 281.754 147.526,283.594 149.631,283.594 152.603 C 283.594 154.009,283.078 154.589,271.680 166.009 C 259.044 178.669,258.011 180.078,261.363 180.078 C 261.708 180.078,266.532 175.493,278.831 163.477 C 281.910 160.469,284.812 157.794,285.281 157.533 C 287.544 156.273,291.009 157.573,291.803 159.979 C 292.697 162.689,292.273 163.297,283.640 171.669 C 270.729 184.189,267.151 187.942,267.394 188.708 C 267.984 190.565,268.830 189.953,277.128 181.665 C 286.720 172.086,288.479 171.181,290.636 174.718 C 292.519 177.806,293.189 176.877,276.771 193.945 C 268.033 203.030,258.944 212.552,258.743 212.832 C 258.689 212.908,254.053 208.425,248.440 202.871 C 242.827 197.318,237.676 192.466,236.994 192.090 C 234.291 190.600,229.516 191.403,227.010 193.769 L 226.091 194.637 223.936 192.482 L 221.781 190.327 222.450 188.313 C 223.669 184.644,225.829 182.204,243.945 164.023 C 265.217 142.676,264.852 142.955,268.209 145.515 M158.752 153.515 C 163.627 156.419,166.981 158.139,169.112 158.827 C 172.095 159.789,172.302 159.930,172.981 161.465 C 173.870 163.475,175.920 165.315,178.271 166.213 C 179.839 166.812,180.093 167.072,180.317 168.312 C 180.457 169.090,180.730 170.034,180.925 170.410 C 181.455 171.437,180.664 171.266,178.729 169.934 C 176.353 168.299,171.860 166.902,167.969 166.588 C 162.822 166.172,161.008 165.201,154.941 159.617 L 151.172 156.147 151.172 152.683 C 151.172 150.778,151.256 149.219,151.358 149.219 C 151.460 149.219,154.788 151.152,158.752 153.515 M157.740 167.905 C 160.814 169.874,163.025 170.619,167.218 171.097 C 174.171 171.890,176.878 173.435,186.033 181.836 C 198.126 192.933,198.350 193.260,195.742 196.052 C 193.728 198.208,192.179 197.816,187.565 193.982 C 179.836 187.561,180.149 187.742,178.839 188.928 C 177.650 190.004,177.666 190.022,192.161 204.270 C 199.880 211.859,206.404 218.569,206.658 219.182 C 207.735 221.783,205.182 225.000,202.040 225.000 L 200.229 225.000 190.046 214.844 C 184.446 209.258,179.675 204.688,179.445 204.688 C 178.953 204.688,177.536 206.170,177.769 206.440 C 177.858 206.542,183.291 212.091,189.844 218.772 C 203.898 233.101,204.351 233.851,200.765 236.868 C 197.538 239.583,197.382 239.479,183.098 225.030 C 172.767 214.580,170.976 212.926,170.354 213.259 C 168.519 214.241,168.921 214.774,180.717 226.988 C 193.656 240.386,193.550 240.218,190.999 243.123 C 187.817 246.747,187.783 246.724,169.850 228.957 C 162.525 221.701,161.296 220.634,160.768 221.073 C 159.727 221.937,159.971 222.262,167.240 229.688 C 175.524 238.149,175.566 238.203,175.218 240.054 C 174.836 242.093,172.965 242.946,170.961 241.996 C 169.412 241.261,143.608 215.217,141.033 211.789 C 139.081 209.192,138.144 206.653,137.106 201.152 C 135.646 193.415,134.788 192.058,125.378 182.587 C 121.733 178.917,118.750 175.754,118.750 175.558 C 118.750 175.361,123.892 170.054,130.176 163.764 L 141.602 152.328 148.438 159.327 C 152.626 163.616,156.228 166.937,157.740 167.905 M248.828 153.241 C 248.828 153.519,247.598 154.849,246.094 156.195 C 242.717 159.219,242.617 158.977,245.783 155.441 C 248.203 152.738,248.828 152.286,248.828 153.241 M224.797 164.668 C 226.132 167.396,228.252 168.924,230.719 168.937 C 232.861 168.948,232.984 168.722,228.116 173.714 C 222.072 179.912,219.704 182.938,218.502 186.003 C 217.546 188.439,217.357 188.672,216.332 188.672 C 214.844 188.672,212.538 189.662,211.328 190.820 L 210.352 191.755 202.284 184.061 C 197.847 179.829,194.200 176.166,194.179 175.921 C 194.081 174.781,195.407 175.102,196.698 176.531 C 198.602 178.639,200.193 179.297,203.379 179.295 C 206.971 179.293,207.126 179.182,216.010 170.164 C 224.853 161.187,223.506 162.029,224.797 164.668 M188.086 176.382 C 189.160 176.708,190.106 176.968,190.189 176.961 C 190.271 176.953,190.376 177.563,190.421 178.317 C 190.467 179.071,190.400 179.680,190.272 179.671 C 189.981 179.649,185.670 175.790,185.938 175.790 C 186.045 175.790,187.012 176.056,188.086 176.382 M218.035 194.256 C 218.608 194.515,224.554 200.088,231.248 206.641 C 244.695 219.803,243.797 219.037,244.708 218.127 C 245.486 217.349,245.862 217.795,235.842 207.592 C 228.575 200.191,228.301 199.681,230.308 197.296 C 233.055 194.031,233.768 194.539,252.810 213.351 C 266.779 227.149,267.719 228.560,268.927 237.527 C 269.475 241.594,271.038 243.833,278.738 251.576 C 282.698 255.557,285.938 258.983,285.938 259.188 C 285.938 259.393,280.445 264.963,273.733 271.566 L 261.528 283.570 255.081 277.186 C 246.341 268.534,244.525 267.525,236.738 266.999 C 228.790 266.462,226.112 264.956,212.212 253.206 C 208.563 250.120,207.779 247.903,209.581 245.762 C 211.597 243.365,213.915 243.833,218.504 247.564 C 222.637 250.925,225.851 253.125,226.625 253.125 C 227.442 253.125,228.216 251.863,227.902 251.044 C 227.646 250.378,208.255 231.831,206.594 230.664 C 205.192 229.679,205.198 229.504,206.654 228.901 C 208.286 228.225,210.852 225.205,211.343 223.383 C 211.861 221.460,211.109 220.939,218.223 228.157 C 221.628 231.613,224.743 234.619,225.145 234.837 C 226.196 235.408,227.596 234.009,227.025 232.958 C 226.306 231.632,208.207 214.086,207.712 214.234 C 207.445 214.313,206.195 213.235,204.934 211.838 C 202.120 208.719,201.938 206.536,204.289 204.110 C 207.283 201.021,207.643 201.245,221.539 214.844 C 233.611 226.658,234.052 227.004,235.068 225.474 C 235.648 224.600,235.401 224.320,223.690 212.551 C 211.797 200.599,211.719 200.510,211.719 198.880 C 211.719 195.326,215.032 192.900,218.035 194.256 M156.838 234.401 C 171.078 248.676,172.258 249.280,176.972 244.701 L 178.358 243.355 179.626 244.663 L 180.894 245.971 179.412 247.302 C 177.712 248.828,176.308 249.466,171.010 251.120 C 166.031 252.674,164.207 253.965,157.400 260.752 L 151.714 266.421 149.197 263.777 C 147.813 262.323,142.240 256.566,136.813 250.983 L 126.947 240.833 135.834 231.940 C 140.721 227.049,144.899 223.047,145.117 223.047 C 145.335 223.047,150.609 228.156,156.838 234.401 M209.727 239.176 C 212.176 241.477,212.181 241.406,209.584 241.406 C 205.839 241.406,203.646 244.258,203.962 248.717 C 204.130 251.092,204.125 251.090,199.806 246.902 C 196.488 243.685,196.446 243.173,199.470 242.817 C 202.946 242.409,205.438 240.818,206.474 238.345 C 207.129 236.782,207.196 236.799,209.727 239.176 M188.187 249.579 L 190.242 249.805 190.336 292.480 C 190.387 315.952,190.342 335.156,190.236 335.156 C 190.129 335.156,181.296 326.412,170.607 315.724 L 151.172 296.292 151.172 283.645 C 151.172 272.508,151.241 271.056,151.752 271.479 C 152.237 271.882,153.457 270.884,159.271 265.324 C 168.604 256.399,168.031 256.812,173.511 255.039 C 178.450 253.440,181.018 252.077,183.011 249.997 C 183.943 249.024,184.359 248.844,185.150 249.071 C 185.691 249.227,187.057 249.455,188.187 249.579 M221.315 266.093 C 226.442 270.011,229.181 270.987,236.359 271.451 C 242.485 271.848,243.490 272.201,247.039 275.212 L 249.609 277.393 249.604 286.646 L 249.598 295.898 230.076 315.463 L 210.554 335.029 210.453 296.388 C 210.397 275.136,210.414 257.685,210.489 257.610 C 210.565 257.534,212.499 259.004,214.786 260.877 C 217.074 262.750,220.012 265.097,221.315 266.093 " stroke="none" fill="#fbfbfb" fill-rule="evenodd"></path><path id="path2" d="M66.183 53.516 C 66.183 58.350,66.239 60.327,66.307 57.910 C 66.376 55.493,66.376 51.538,66.307 49.121 C 66.239 46.704,66.183 48.682,66.183 53.516 M111.124 84.766 C 111.124 103.564,111.172 111.255,111.230 101.855 C 111.289 92.456,111.289 77.075,111.230 67.676 C 111.172 58.276,111.124 65.967,111.124 84.766 M289.174 63.867 C 289.177 64.941,289.253 65.334,289.343 64.741 C 289.433 64.147,289.430 63.268,289.337 62.788 C 289.245 62.307,289.171 62.793,289.174 63.867 M66.122 73.438 C 66.122 74.404,66.198 74.800,66.291 74.316 C 66.384 73.833,66.384 73.042,66.291 72.559 C 66.198 72.075,66.122 72.471,66.122 73.438 M66.144 80.664 C 66.146 82.168,66.216 82.735,66.301 81.925 C 66.385 81.114,66.384 79.884,66.298 79.191 C 66.211 78.497,66.142 79.160,66.144 80.664 M289.180 80.078 C 289.180 81.260,289.253 81.743,289.342 81.152 C 289.432 80.562,289.432 79.595,289.342 79.004 C 289.253 78.413,289.180 78.896,289.180 80.078 M228.686 96.191 L 227.539 97.461 228.809 96.314 C 229.507 95.683,230.078 95.111,230.078 95.044 C 230.078 94.742,229.756 95.008,228.686 96.191 M66.106 99.219 C 66.106 99.971,66.187 100.278,66.285 99.902 C 66.383 99.526,66.383 98.911,66.285 98.535 C 66.187 98.159,66.106 98.467,66.106 99.219 M160.921 105.176 C 162.540 106.900,162.891 107.211,162.891 106.917 C 162.891 106.855,162.056 106.020,161.035 105.062 L 159.180 103.320 160.921 105.176 M66.133 110.547 C 66.133 111.729,66.206 112.212,66.295 111.621 C 66.385 111.030,66.385 110.063,66.295 109.473 C 66.206 108.882,66.133 109.365,66.133 110.547 M289.210 116.797 C 289.210 119.268,289.274 120.278,289.351 119.043 C 289.429 117.808,289.429 115.786,289.351 114.551 C 289.274 113.315,289.210 114.326,289.210 116.797 M140.234 118.091 C 140.234 118.158,140.806 118.729,141.504 119.361 L 142.773 120.508 141.626 119.238 C 140.557 118.055,140.234 117.789,140.234 118.091 M66.144 127.539 C 66.146 129.043,66.216 129.610,66.301 128.800 C 66.385 127.989,66.384 126.759,66.298 126.066 C 66.211 125.372,66.142 126.035,66.144 127.539 M190.806 127.441 L 188.867 129.492 190.918 127.554 C 192.046 126.488,192.969 125.565,192.969 125.503 C 192.969 125.211,192.607 125.536,190.806 127.441 M111.071 128.711 C 111.073 130.430,111.142 131.084,111.224 130.165 C 111.307 129.247,111.305 127.840,111.221 127.040 C 111.138 126.240,111.070 126.992,111.071 128.711 M289.153 129.297 C 289.153 130.049,289.234 130.356,289.332 129.980 C 289.430 129.604,289.430 128.989,289.332 128.613 C 289.234 128.237,289.153 128.545,289.153 129.297 M194.708 134.473 L 193.164 136.133 194.824 134.589 C 196.368 133.153,196.664 132.813,196.368 132.813 C 196.305 132.813,195.557 133.560,194.708 134.473 M66.114 136.133 C 66.118 136.992,66.198 137.298,66.292 136.812 C 66.385 136.326,66.382 135.623,66.284 135.249 C 66.186 134.876,66.110 135.273,66.114 136.133 M66.127 141.992 C 66.130 143.066,66.206 143.459,66.296 142.866 C 66.386 142.272,66.383 141.393,66.291 140.913 C 66.198 140.432,66.124 140.918,66.127 141.992 M289.169 142.188 C 289.169 143.154,289.245 143.550,289.338 143.066 C 289.431 142.583,289.431 141.792,289.338 141.309 C 289.245 140.825,289.169 141.221,289.169 142.188 M203.296 142.676 L 202.148 143.945 203.418 142.798 C 204.116 142.167,204.688 141.596,204.688 141.528 C 204.688 141.227,204.365 141.492,203.296 142.676 M66.127 149.805 C 66.130 150.879,66.206 151.272,66.296 150.678 C 66.386 150.084,66.383 149.206,66.291 148.725 C 66.198 148.245,66.124 148.730,66.127 149.805 M289.161 150.195 C 289.165 151.055,289.245 151.360,289.339 150.874 C 289.432 150.388,289.429 149.685,289.331 149.312 C 289.233 148.938,289.157 149.336,289.161 150.195 M271.862 152.637 L 269.727 154.883 271.973 152.748 C 273.208 151.573,274.219 150.563,274.219 150.502 C 274.219 150.212,273.845 150.550,271.862 152.637 M209.949 153.223 L 207.617 155.664 210.059 153.333 C 211.401 152.050,212.500 150.952,212.500 150.891 C 212.500 150.603,212.114 150.955,209.949 153.223 M212.677 154.395 L 211.133 156.055 212.793 154.511 C 214.337 153.075,214.633 152.734,214.337 152.734 C 214.273 152.734,213.526 153.481,212.677 154.395 M281.229 156.152 L 279.883 157.617 281.348 156.271 C 282.711 155.018,282.992 154.688,282.694 154.688 C 282.629 154.688,281.969 155.347,281.229 156.152 M66.169 164.063 C 66.169 166.963,66.230 168.149,66.305 166.699 C 66.380 165.249,66.380 162.876,66.305 161.426 C 66.230 159.976,66.169 161.162,66.169 164.063 M217.188 162.695 C 216.239 163.662,215.550 164.453,215.658 164.453 C 215.765 164.453,216.629 163.662,217.578 162.695 C 218.527 161.729,219.215 160.938,219.108 160.938 C 219.001 160.938,218.136 161.729,217.188 162.695 M111.127 208.984 C 111.127 234.873,111.173 245.464,111.230 232.520 C 111.288 219.575,111.288 198.394,111.230 185.449 C 111.173 172.505,111.127 183.096,111.127 208.984 M115.430 166.016 C 116.922 167.520,118.231 168.750,118.338 168.750 C 118.446 168.750,117.313 167.520,115.820 166.016 C 114.328 164.512,113.019 163.281,112.912 163.281 C 112.804 163.281,113.937 164.512,115.430 166.016 M66.199 195.313 C 66.199 208.311,66.248 213.628,66.308 207.129 C 66.369 200.630,66.369 189.995,66.308 183.496 C 66.248 176.997,66.199 182.314,66.199 195.313 M290.806 186.035 L 288.867 188.086 290.918 186.147 C 292.824 184.346,293.148 183.984,292.856 183.984 C 292.795 183.984,291.872 184.907,290.806 186.035 M271.094 187.695 C 270.145 188.662,269.456 189.453,269.564 189.453 C 269.671 189.453,270.536 188.662,271.484 187.695 C 272.433 186.729,273.122 185.938,273.014 185.938 C 272.907 185.938,272.043 186.729,271.094 187.695 M289.169 190.234 C 289.169 191.201,289.245 191.597,289.338 191.113 C 289.431 190.630,289.431 189.839,289.338 189.355 C 289.245 188.872,289.169 189.268,289.169 190.234 M289.191 197.070 C 289.192 198.574,289.263 199.142,289.348 198.331 C 289.432 197.521,289.431 196.290,289.344 195.597 C 289.258 194.903,289.189 195.566,289.191 197.070 M273.608 196.973 L 272.461 198.242 273.730 197.095 C 274.429 196.464,275.000 195.893,275.000 195.825 C 275.000 195.524,274.678 195.789,273.608 196.973 M214.258 203.125 C 215.316 204.199,216.269 205.078,216.377 205.078 C 216.484 205.078,215.707 204.199,214.648 203.125 C 213.590 202.051,212.637 201.172,212.529 201.172 C 212.422 201.172,213.200 202.051,214.258 203.125 M221.680 210.547 C 222.519 211.406,223.293 212.109,223.401 212.109 C 223.508 212.109,222.909 211.406,222.070 210.547 C 221.231 209.687,220.457 208.984,220.349 208.984 C 220.242 208.984,220.841 209.687,221.680 210.547 M226.563 215.430 C 227.291 216.182,227.976 216.797,228.083 216.797 C 228.190 216.797,227.682 216.182,226.953 215.430 C 226.224 214.678,225.540 214.063,225.433 214.063 C 225.325 214.063,225.834 214.678,226.563 215.430 M323.237 222.363 L 317.773 227.930 323.340 222.466 C 328.511 217.391,329.083 216.797,328.803 216.797 C 328.747 216.797,326.242 219.302,323.237 222.363 M163.672 226.367 C 164.401 227.119,165.085 227.734,165.192 227.734 C 165.300 227.734,164.791 227.119,164.063 226.367 C 163.334 225.615,162.649 225.000,162.542 225.000 C 162.435 225.000,162.943 225.615,163.672 226.367 M185.156 227.075 C 185.156 227.143,185.728 227.714,186.426 228.345 L 187.695 229.492 186.548 228.223 C 185.479 227.039,185.156 226.774,185.156 227.075 M182.422 229.102 C 183.151 229.854,183.835 230.469,183.942 230.469 C 184.050 230.469,183.541 229.854,182.813 229.102 C 182.084 228.350,181.399 227.734,181.292 227.734 C 181.185 227.734,181.693 228.350,182.422 229.102 M312.884 232.715 L 308.398 237.305 312.988 232.819 C 315.513 230.352,317.578 228.286,317.578 228.229 C 317.578 227.948,317.051 228.452,312.884 232.715 M136.899 230.957 L 134.961 233.008 137.012 231.069 C 138.140 230.003,139.063 229.080,139.063 229.019 C 139.063 228.727,138.701 229.051,136.899 230.957 M166.406 238.013 C 166.406 238.080,166.978 238.651,167.676 239.282 L 168.945 240.430 167.798 239.160 C 166.729 237.977,166.406 237.711,166.406 238.013 M304.478 241.113 L 302.539 243.164 304.590 241.226 C 305.718 240.159,306.641 239.237,306.641 239.175 C 306.641 238.883,306.279 239.208,304.478 241.113 M276.563 249.732 C 276.563 249.799,277.134 250.370,277.832 251.001 L 279.102 252.148 277.954 250.879 C 276.885 249.696,276.563 249.430,276.563 249.732 M154.083 270.410 L 152.539 272.070 154.199 270.526 C 155.743 269.090,156.039 268.750,155.743 268.750 C 155.680 268.750,154.932 269.497,154.083 270.410 M247.827 297.363 L 246.680 298.633 247.949 297.486 C 248.647 296.854,249.219 296.283,249.219 296.216 C 249.219 295.914,248.896 296.180,247.827 297.363 M156.445 301.563 C 159.017 304.141,161.208 306.250,161.316 306.250 C 161.423 306.250,159.407 304.141,156.836 301.563 C 154.265 298.984,152.073 296.875,151.965 296.875 C 151.858 296.875,153.874 298.984,156.445 301.563 M164.258 309.375 C 165.750 310.879,167.059 312.109,167.167 312.109 C 167.274 312.109,166.141 310.879,164.648 309.375 C 163.156 307.871,161.847 306.641,161.740 306.641 C 161.632 306.641,162.765 307.871,164.258 309.375 M144.531 309.107 C 144.531 309.174,145.103 309.745,145.801 310.376 L 147.070 311.523 145.923 310.254 C 144.854 309.071,144.531 308.805,144.531 309.107 M177.734 342.383 C 178.463 343.135,179.147 343.750,179.255 343.750 C 179.362 343.750,178.854 343.135,178.125 342.383 C 177.396 341.631,176.712 341.016,176.605 341.016 C 176.497 341.016,177.006 341.631,177.734 342.383 M185.352 350.000 C 186.410 351.074,187.363 351.953,187.471 351.953 C 187.578 351.953,186.800 351.074,185.742 350.000 C 184.684 348.926,183.731 348.047,183.623 348.047 C 183.516 348.047,184.293 348.926,185.352 350.000 M189.437 354.004 C 191.056 355.729,191.406 356.039,191.406 355.745 C 191.406 355.683,190.571 354.848,189.551 353.890 L 187.695 352.148 189.437 354.004 M196.094 360.742 C 197.261 361.924,198.303 362.891,198.411 362.891 C 198.518 362.891,197.651 361.924,196.484 360.742 C 195.317 359.561,194.275 358.594,194.167 358.594 C 194.060 358.594,194.927 359.561,196.094 360.742 " stroke="none" fill="#f19595" fill-rule="evenodd"></path><path id="path3" d="M342.770 128.906 C 342.770 179.932,342.816 200.806,342.871 175.293 C 342.927 149.780,342.927 108.032,342.871 82.520 C 342.816 57.007,342.770 77.881,342.770 128.906 M91.699 50.292 C 95.190 50.357,100.903 50.357,104.395 50.292 C 107.886 50.228,105.029 50.175,98.047 50.175 C 91.064 50.175,88.208 50.228,91.699 50.292 M157.887 50.292 C 160.614 50.359,165.184 50.359,168.043 50.292 C 170.903 50.225,168.672 50.170,163.086 50.170 C 157.500 50.170,155.161 50.225,157.887 50.292 M176.281 50.288 C 177.308 50.368,178.890 50.367,179.797 50.285 C 180.704 50.204,179.863 50.137,177.930 50.139 C 175.996 50.140,175.254 50.207,176.281 50.288 M184.869 50.280 C 185.462 50.370,186.341 50.368,186.822 50.275 C 187.302 50.182,186.816 50.109,185.742 50.112 C 184.668 50.115,184.275 50.191,184.869 50.280 M217.694 50.291 C 219.368 50.364,222.005 50.364,223.553 50.290 C 225.101 50.216,223.730 50.156,220.508 50.156 C 217.285 50.157,216.019 50.217,217.694 50.291 M230.376 50.276 C 230.862 50.370,231.565 50.366,231.938 50.268 C 232.312 50.171,231.914 50.094,231.055 50.099 C 230.195 50.103,229.890 50.183,230.376 50.276 M233.501 50.276 C 233.987 50.370,234.690 50.366,235.063 50.268 C 235.437 50.171,235.039 50.094,234.180 50.099 C 233.320 50.103,233.015 50.183,233.501 50.276 M298.340 50.292 C 302.261 50.356,308.677 50.356,312.598 50.292 C 316.519 50.229,313.311 50.177,305.469 50.177 C 297.627 50.177,294.419 50.229,298.340 50.292 M323.353 50.288 C 324.488 50.368,326.246 50.367,327.259 50.287 C 328.272 50.206,327.344 50.142,325.195 50.143 C 323.047 50.144,322.218 50.209,323.353 50.288 M289.161 51.758 C 289.165 52.617,289.245 52.923,289.339 52.437 C 289.432 51.951,289.429 51.248,289.331 50.874 C 289.233 50.501,289.157 50.898,289.161 51.758 M289.153 57.422 C 289.153 58.174,289.234 58.481,289.332 58.105 C 289.430 57.729,289.430 57.114,289.332 56.738 C 289.234 56.362,289.153 56.670,289.153 57.422 M289.169 67.188 C 289.169 68.154,289.245 68.550,289.338 68.066 C 289.431 67.583,289.431 66.792,289.338 66.309 C 289.245 65.825,289.169 66.221,289.169 67.188 M289.169 73.438 C 289.169 74.404,289.245 74.800,289.338 74.316 C 289.431 73.833,289.431 73.042,289.338 72.559 C 289.245 72.075,289.169 72.471,289.169 73.438 M165.723 78.785 C 166.099 78.883,166.714 78.883,167.090 78.785 C 167.466 78.687,167.158 78.606,166.406 78.606 C 165.654 78.606,165.347 78.687,165.723 78.785 M289.169 83.594 C 289.169 84.561,289.245 84.956,289.338 84.473 C 289.431 83.989,289.431 83.198,289.338 82.715 C 289.245 82.231,289.169 82.627,289.169 83.594 M158.203 89.575 C 158.203 89.643,158.774 90.214,159.473 90.845 L 160.742 91.992 159.595 90.723 C 158.525 89.539,158.203 89.274,158.203 89.575 M231.641 93.164 C 230.692 94.131,230.003 94.922,230.111 94.922 C 230.218 94.922,231.082 94.131,232.031 93.164 C 232.980 92.197,233.669 91.406,233.561 91.406 C 233.454 91.406,232.589 92.197,231.641 93.164 M289.153 92.578 C 289.153 93.330,289.234 93.638,289.332 93.262 C 289.430 92.886,289.430 92.271,289.332 91.895 C 289.234 91.519,289.153 91.826,289.153 92.578 M178.320 93.750 C 179.159 94.609,179.934 95.313,180.041 95.313 C 180.149 95.313,179.550 94.609,178.711 93.750 C 177.872 92.891,177.097 92.188,176.990 92.188 C 176.882 92.188,177.481 92.891,178.320 93.750 M149.805 98.828 C 151.080 100.117,152.212 101.172,152.319 101.172 C 152.427 101.172,151.471 100.117,150.195 98.828 C 148.920 97.539,147.788 96.484,147.681 96.484 C 147.573 96.484,148.529 97.539,149.805 98.828 M289.169 105.078 C 289.169 106.045,289.245 106.440,289.338 105.957 C 289.431 105.474,289.431 104.683,289.338 104.199 C 289.245 103.716,289.169 104.111,289.169 105.078 M289.153 108.594 C 289.153 109.346,289.234 109.653,289.332 109.277 C 289.430 108.901,289.430 108.286,289.332 107.910 C 289.234 107.534,289.153 107.842,289.153 108.594 M263.265 109.863 C 264.223 110.884,265.058 111.719,265.120 111.719 C 265.414 111.719,265.104 111.368,263.379 109.749 L 261.523 108.008 263.265 109.863 M166.992 111.328 C 168.050 112.402,169.004 113.281,169.111 113.281 C 169.219 113.281,168.441 112.402,167.383 111.328 C 166.325 110.254,165.371 109.375,165.264 109.375 C 165.156 109.375,165.934 110.254,166.992 111.328 M146.094 112.305 C 147.478 113.701,148.698 114.844,148.806 114.844 C 148.913 114.844,147.868 113.701,146.484 112.305 C 145.100 110.908,143.880 109.766,143.773 109.766 C 143.665 109.766,144.710 110.908,146.094 112.305 M196.082 115.918 L 193.555 118.555 196.191 116.027 C 197.642 114.637,198.828 113.450,198.828 113.390 C 198.828 113.103,198.430 113.469,196.082 115.918 M137.891 115.820 C 139.058 117.002,140.100 117.969,140.208 117.969 C 140.315 117.969,139.448 117.002,138.281 115.820 C 137.114 114.639,136.072 113.672,135.964 113.672 C 135.857 113.672,136.724 114.639,137.891 115.820 M191.406 120.508 C 190.457 121.475,189.769 122.266,189.876 122.266 C 189.984 122.266,190.848 121.475,191.797 120.508 C 192.746 119.541,193.434 118.750,193.327 118.750 C 193.219 118.750,192.355 119.541,191.406 120.508 M195.886 122.363 L 193.555 124.805 195.996 122.473 C 198.264 120.307,198.616 119.922,198.328 119.922 C 198.267 119.922,197.169 121.021,195.886 122.363 M289.180 123.047 C 289.180 124.229,289.253 124.712,289.342 124.121 C 289.432 123.530,289.432 122.563,289.342 121.973 C 289.253 121.382,289.180 121.865,289.180 123.047 M289.180 132.422 C 289.180 133.604,289.253 134.087,289.342 133.496 C 289.432 132.905,289.432 131.938,289.342 131.348 C 289.253 130.757,289.180 131.240,289.180 132.422 M155.859 133.398 C 157.026 134.580,158.069 135.547,158.176 135.547 C 158.284 135.547,157.417 134.580,156.250 133.398 C 155.083 132.217,154.040 131.250,153.933 131.250 C 153.826 131.250,154.692 132.217,155.859 133.398 M194.525 138.574 L 190.039 143.164 194.629 138.678 C 198.892 134.512,199.396 133.984,199.115 133.984 C 199.058 133.984,196.992 136.050,194.525 138.574 M114.258 139.844 C 115.750 141.348,117.059 142.578,117.167 142.578 C 117.274 142.578,116.141 141.348,114.648 139.844 C 113.156 138.340,111.847 137.109,111.740 137.109 C 111.632 137.109,112.765 138.340,114.258 139.844 M289.161 139.258 C 289.165 140.117,289.245 140.423,289.339 139.937 C 289.432 139.451,289.429 138.748,289.331 138.374 C 289.233 138.001,289.157 138.398,289.161 139.258 M202.922 147.363 L 199.023 151.367 203.027 147.468 C 205.229 145.324,207.031 143.522,207.031 143.464 C 207.031 143.182,206.544 143.644,202.922 147.363 M71.974 146.289 C 71.978 147.148,72.058 147.454,72.151 146.968 C 72.245 146.482,72.241 145.779,72.143 145.406 C 72.046 145.032,71.969 145.430,71.974 146.289 M135.156 147.778 C 135.156 147.846,135.728 148.417,136.426 149.048 L 137.695 150.195 136.548 148.926 C 135.479 147.742,135.156 147.477,135.156 147.778 M72.062 182.617 C 72.062 201.523,72.110 209.315,72.168 199.932 C 72.226 190.548,72.226 175.080,72.168 165.557 C 72.110 156.034,72.062 163.711,72.062 182.617 M110.982 149.316 C 111.078 149.370,112.733 150.908,114.660 152.734 L 118.164 156.055 114.852 152.637 C 113.031 150.757,111.376 149.219,111.174 149.219 C 110.972 149.219,110.886 149.263,110.982 149.316 M111.076 153.320 C 111.075 155.254,111.141 156.094,111.223 155.188 C 111.305 154.281,111.306 152.699,111.225 151.672 C 111.144 150.645,111.077 151.387,111.076 153.320 M138.661 155.371 L 136.133 158.008 138.770 155.480 C 140.220 154.090,141.406 152.903,141.406 152.843 C 141.406 152.556,141.008 152.922,138.661 155.371 M267.969 156.445 C 267.020 157.412,266.331 158.203,266.439 158.203 C 266.546 158.203,267.411 157.412,268.359 156.445 C 269.308 155.479,269.997 154.688,269.889 154.688 C 269.782 154.688,268.918 155.479,267.969 156.445 M203.704 159.473 L 199.805 163.477 203.809 159.578 C 206.011 157.433,207.813 155.631,207.813 155.574 C 207.813 155.291,207.325 155.754,203.704 159.473 M244.249 157.129 C 243.486 158.116,243.225 158.723,243.688 158.437 C 244.150 158.151,245.076 156.641,244.788 156.641 C 244.699 156.641,244.457 156.860,244.249 157.129 M220.884 159.082 L 218.945 161.133 220.996 159.194 C 222.902 157.393,223.226 157.031,222.935 157.031 C 222.873 157.031,221.950 157.954,220.884 159.082 M116.992 162.500 C 119.133 164.648,120.972 166.406,121.079 166.406 C 121.187 166.406,119.523 164.648,117.383 162.500 C 115.242 160.352,113.403 158.594,113.296 158.594 C 113.188 158.594,114.852 160.352,116.992 162.500 M281.821 160.645 L 279.883 162.695 281.934 160.757 C 283.839 158.956,284.164 158.594,283.872 158.594 C 283.810 158.594,282.887 159.517,281.821 160.645 M272.456 164.941 L 266.992 170.508 272.559 165.044 C 277.730 159.969,278.302 159.375,278.022 159.375 C 277.966 159.375,275.461 161.880,272.456 164.941 M282.989 171.973 L 281.445 173.633 283.105 172.089 C 284.649 170.653,284.945 170.313,284.650 170.313 C 284.586 170.313,283.839 171.060,282.989 171.973 M213.260 172.949 L 211.914 174.414 213.379 173.068 C 214.742 171.815,215.023 171.484,214.725 171.484 C 214.660 171.484,214.001 172.144,213.260 172.949 M268.149 173.926 L 266.211 175.977 268.262 174.038 C 270.167 172.237,270.492 171.875,270.200 171.875 C 270.138 171.875,269.216 172.798,268.149 173.926 M274.198 184.668 L 272.852 186.133 274.316 184.787 C 275.680 183.534,275.961 183.203,275.663 183.203 C 275.597 183.203,274.938 183.862,274.198 184.668 M127.734 184.961 C 128.463 185.713,129.147 186.328,129.255 186.328 C 129.362 186.328,128.854 185.713,128.125 184.961 C 127.396 184.209,126.712 183.594,126.605 183.594 C 126.497 183.594,127.006 184.209,127.734 184.961 M208.594 190.039 C 209.323 190.791,210.007 191.406,210.114 191.406 C 210.222 191.406,209.713 190.791,208.984 190.039 C 208.256 189.287,207.571 188.672,207.464 188.672 C 207.357 188.672,207.865 189.287,208.594 190.039 M193.750 189.185 C 193.750 189.252,194.321 189.823,195.020 190.454 L 196.289 191.602 195.142 190.332 C 194.072 189.149,193.750 188.883,193.750 189.185 M222.266 190.747 C 222.266 190.814,222.837 191.386,223.535 192.017 L 224.805 193.164 223.657 191.895 C 222.588 190.711,222.266 190.445,222.266 190.747 M183.008 195.703 C 184.066 196.777,185.019 197.656,185.127 197.656 C 185.234 197.656,184.457 196.777,183.398 195.703 C 182.340 194.629,181.387 193.750,181.279 193.750 C 181.172 193.750,181.950 194.629,183.008 195.703 M243.164 197.656 C 245.304 199.805,247.144 201.563,247.251 201.563 C 247.358 201.563,245.695 199.805,243.555 197.656 C 241.414 195.508,239.575 193.750,239.468 193.750 C 239.360 193.750,241.024 195.508,243.164 197.656 M270.099 200.488 L 268.555 202.148 270.215 200.604 C 271.759 199.168,272.055 198.828,271.759 198.828 C 271.695 198.828,270.948 199.575,270.099 200.488 M289.174 201.367 C 289.177 202.441,289.253 202.834,289.343 202.241 C 289.433 201.647,289.430 200.768,289.337 200.288 C 289.245 199.807,289.171 200.293,289.174 201.367 M234.570 206.250 C 236.063 207.754,237.372 208.984,237.479 208.984 C 237.586 208.984,236.453 207.754,234.961 206.250 C 233.469 204.746,232.160 203.516,232.052 203.516 C 231.945 203.516,233.078 204.746,234.570 206.250 M289.093 204.280 C 289.076 204.594,288.406 205.560,287.604 206.429 L 286.146 208.008 287.847 206.392 C 288.824 205.464,289.458 204.550,289.336 204.244 C 289.166 203.816,289.118 203.823,289.093 204.280 M182.813 207.617 C 183.541 208.369,184.226 208.984,184.333 208.984 C 184.440 208.984,183.932 208.369,183.203 207.617 C 182.474 206.865,181.790 206.250,181.683 206.250 C 181.575 206.250,182.084 206.865,182.813 207.617 M262.479 208.496 L 261.133 209.961 262.598 208.615 C 263.961 207.362,264.242 207.031,263.944 207.031 C 263.879 207.031,263.219 207.690,262.479 208.496 M185.938 210.742 C 186.666 211.494,187.351 212.109,187.458 212.109 C 187.565 212.109,187.057 211.494,186.328 210.742 C 185.599 209.990,184.915 209.375,184.808 209.375 C 184.700 209.375,185.209 209.990,185.938 210.742 M289.205 213.867 C 289.206 216.016,289.272 216.845,289.351 215.710 C 289.430 214.574,289.429 212.817,289.349 211.803 C 289.269 210.790,289.204 211.719,289.205 213.867 M189.844 214.648 C 191.011 215.830,192.053 216.797,192.161 216.797 C 192.268 216.797,191.401 215.830,190.234 214.648 C 189.067 213.467,188.025 212.500,187.917 212.500 C 187.810 212.500,188.677 213.467,189.844 214.648 M231.445 220.313 C 233.370 222.246,235.033 223.828,235.140 223.828 C 235.247 223.828,233.761 222.246,231.836 220.313 C 229.911 218.379,228.249 216.797,228.141 216.797 C 228.034 216.797,229.521 218.379,231.445 220.313 M194.922 219.727 C 196.306 221.123,197.526 222.266,197.634 222.266 C 197.741 222.266,196.697 221.123,195.313 219.727 C 193.928 218.330,192.708 217.188,192.601 217.188 C 192.493 217.188,193.538 218.330,194.922 219.727 M194.922 224.414 C 196.739 226.240,198.313 227.734,198.420 227.734 C 198.528 227.734,197.129 226.240,195.313 224.414 C 193.496 222.588,191.922 221.094,191.814 221.094 C 191.707 221.094,193.105 222.588,194.922 224.414 M178.906 225.513 C 178.906 225.580,179.478 226.151,180.176 226.782 L 181.445 227.930 180.298 226.660 C 179.229 225.477,178.906 225.211,178.906 225.513 M172.266 231.445 C 173.650 232.842,174.870 233.984,174.977 233.984 C 175.085 233.984,174.040 232.842,172.656 231.445 C 171.272 230.049,170.052 228.906,169.944 228.906 C 169.837 228.906,170.882 230.049,172.266 231.445 M188.867 230.859 C 189.706 231.719,190.481 232.422,190.588 232.422 C 190.696 232.422,190.097 231.719,189.258 230.859 C 188.419 230.000,187.644 229.297,187.537 229.297 C 187.429 229.297,188.028 230.000,188.867 230.859 M286.705 232.715 L 284.570 234.961 286.816 232.826 C 288.903 230.842,289.241 230.469,288.951 230.469 C 288.890 230.469,287.880 231.479,286.705 232.715 M132.212 235.645 L 130.273 237.695 132.324 235.757 C 133.452 234.691,134.375 233.768,134.375 233.706 C 134.375 233.415,134.013 233.739,132.212 235.645 M288.439 235.998 C 288.270 236.271,288.332 236.343,288.595 236.180 C 288.895 235.995,289.070 236.848,289.163 238.952 L 289.296 241.992 289.375 238.770 C 289.447 235.782,289.138 234.866,288.439 235.998 M283.386 241.113 L 281.055 243.555 283.496 241.223 C 284.839 239.941,285.938 238.842,285.938 238.782 C 285.938 238.493,285.552 238.845,283.386 241.113 M217.562 240.723 C 218.520 241.743,219.355 242.578,219.417 242.578 C 219.711 242.578,219.400 242.227,217.676 240.609 L 215.820 238.867 217.562 240.723 M289.194 250.781 C 289.194 252.393,289.263 253.052,289.347 252.246 C 289.431 251.440,289.431 250.122,289.347 249.316 C 289.263 248.511,289.194 249.170,289.194 250.781 M182.593 250.488 L 181.445 251.758 182.715 250.611 C 183.898 249.541,184.164 249.219,183.862 249.219 C 183.795 249.219,183.224 249.790,182.593 250.488 M140.820 255.078 C 142.745 257.012,144.408 258.594,144.515 258.594 C 144.622 258.594,143.136 257.012,141.211 255.078 C 139.286 253.145,137.624 251.563,137.516 251.563 C 137.409 251.563,138.896 253.145,140.820 255.078 M280.859 254.102 C 282.026 255.283,283.069 256.250,283.176 256.250 C 283.284 256.250,282.417 255.283,281.250 254.102 C 280.083 252.920,279.040 251.953,278.933 251.953 C 278.826 251.953,279.692 252.920,280.859 254.102 M139.063 291.992 C 139.791 292.744,140.476 293.359,140.583 293.359 C 140.690 293.359,140.182 292.744,139.453 291.992 C 138.724 291.240,138.040 290.625,137.933 290.625 C 137.825 290.625,138.334 291.240,139.063 291.992 M168.164 321.094 C 182.987 335.918,195.203 348.047,195.310 348.047 C 195.418 348.047,183.378 335.918,168.555 321.094 C 153.732 306.270,141.516 294.141,141.408 294.141 C 141.301 294.141,153.341 306.270,168.164 321.094 M244.518 300.684 L 242.383 302.930 244.629 300.795 C 246.716 298.811,247.054 298.438,246.764 298.438 C 246.703 298.438,245.692 299.448,244.518 300.684 M175.000 320.023 C 175.000 320.079,178.472 323.551,182.715 327.738 L 190.430 335.352 182.816 327.637 C 175.742 320.469,175.000 319.746,175.000 320.023 M198.031 350.879 C 199.649 352.604,200.000 352.914,200.000 352.620 C 200.000 352.558,199.165 351.723,198.145 350.765 L 196.289 349.023 198.031 350.879 " stroke="none" fill="#e4747c" fill-rule="evenodd"></path><path id="path4" d="M129.004 35.840 C 168.267 35.895,232.515 35.895,271.777 35.840 C 311.040 35.785,278.916 35.740,200.391 35.740 C 121.865 35.740,89.741 35.785,129.004 35.840 M57.614 129.102 C 57.614 180.234,57.659 201.210,57.715 175.715 C 57.770 150.219,57.770 108.384,57.715 82.746 C 57.659 57.109,57.614 77.969,57.614 129.102 M66.271 44.434 C 66.108 44.698,155.938 44.697,285.742 44.432 C 312.383 44.377,273.941 44.290,200.316 44.237 C 126.691 44.184,66.371 44.272,66.271 44.434 M66.122 70.313 C 66.122 71.279,66.198 71.675,66.291 71.191 C 66.384 70.708,66.384 69.917,66.291 69.434 C 66.198 68.950,66.122 69.346,66.122 70.313 M66.106 76.172 C 66.106 76.924,66.187 77.231,66.285 76.855 C 66.383 76.479,66.383 75.864,66.285 75.488 C 66.187 75.112,66.106 75.420,66.106 76.172 M153.906 84.888 C 153.906 84.955,154.478 85.526,155.176 86.157 L 156.445 87.305 155.298 86.035 C 154.229 84.852,153.906 84.586,153.906 84.888 M179.297 88.086 C 180.026 88.838,180.710 89.453,180.817 89.453 C 180.925 89.453,180.416 88.838,179.688 88.086 C 178.959 87.334,178.274 86.719,178.167 86.719 C 178.060 86.719,178.568 87.334,179.297 88.086 M166.390 97.754 C 168.009 99.479,168.359 99.789,168.359 99.495 C 168.359 99.433,167.524 98.598,166.504 97.640 L 164.648 95.898 166.390 97.754 M233.594 97.852 C 232.645 98.818,231.956 99.609,232.064 99.609 C 232.171 99.609,233.036 98.818,233.984 97.852 C 234.933 96.885,235.622 96.094,235.514 96.094 C 235.407 96.094,234.543 96.885,233.594 97.852 M226.343 98.535 L 225.195 99.805 226.465 98.657 C 227.163 98.026,227.734 97.455,227.734 97.388 C 227.734 97.086,227.412 97.352,226.343 98.535 M140.039 101.953 C 140.878 102.813,141.653 103.516,141.760 103.516 C 141.868 103.516,141.269 102.813,140.430 101.953 C 139.591 101.094,138.816 100.391,138.709 100.391 C 138.601 100.391,139.200 101.094,140.039 101.953 M157.617 101.953 C 158.456 102.813,159.231 103.516,159.338 103.516 C 159.446 103.516,158.847 102.813,158.008 101.953 C 157.169 101.094,156.394 100.391,156.287 100.391 C 156.179 100.391,156.778 101.094,157.617 101.953 M171.680 103.125 C 173.172 104.629,174.481 105.859,174.588 105.859 C 174.696 105.859,173.563 104.629,172.070 103.125 C 170.578 101.621,169.269 100.391,169.162 100.391 C 169.054 100.391,170.187 101.621,171.680 103.125 M173.047 100.513 C 173.047 100.580,173.618 101.151,174.316 101.782 L 175.586 102.930 174.439 101.660 C 173.369 100.477,173.047 100.211,173.047 100.513 M146.680 108.594 C 148.172 110.098,149.481 111.328,149.588 111.328 C 149.696 111.328,148.563 110.098,147.070 108.594 C 145.578 107.090,144.269 105.859,144.162 105.859 C 144.054 105.859,145.187 107.090,146.680 108.594 M66.137 114.648 C 66.139 115.938,66.212 116.418,66.299 115.716 C 66.386 115.014,66.384 113.959,66.295 113.372 C 66.206 112.785,66.134 113.359,66.137 114.648 M143.750 121.680 C 144.479 122.432,145.163 123.047,145.270 123.047 C 145.378 123.047,144.869 122.432,144.141 121.680 C 143.412 120.928,142.728 120.313,142.620 120.313 C 142.513 120.313,143.021 120.928,143.750 121.680 M185.730 132.520 L 183.398 134.961 185.840 132.629 C 188.108 130.464,188.460 130.078,188.171 130.078 C 188.111 130.078,187.012 131.177,185.730 132.520 M66.127 133.008 C 66.130 134.082,66.206 134.475,66.296 133.881 C 66.386 133.288,66.383 132.409,66.291 131.928 C 66.198 131.448,66.124 131.934,66.127 133.008 M118.555 139.063 C 121.772 142.285,124.492 144.922,124.600 144.922 C 124.707 144.922,122.163 142.285,118.945 139.063 C 115.728 135.840,113.008 133.203,112.900 133.203 C 112.793 133.203,115.337 135.840,118.555 139.063 M176.343 136.035 L 175.195 137.305 176.465 136.157 C 177.648 135.088,177.914 134.766,177.612 134.766 C 177.545 134.766,176.974 135.337,176.343 136.035 M189.445 139.746 L 185.742 143.555 189.551 139.851 C 193.088 136.412,193.537 135.938,193.254 135.938 C 193.196 135.938,191.482 137.651,189.445 139.746 M111.080 140.430 C 111.081 142.578,111.147 143.407,111.226 142.272 C 111.305 141.137,111.304 139.379,111.224 138.366 C 111.144 137.353,111.079 138.281,111.080 140.430 M66.114 138.867 C 66.118 139.727,66.198 140.032,66.292 139.546 C 66.385 139.060,66.382 138.357,66.284 137.984 C 66.186 137.610,66.110 138.008,66.114 138.867 M200.952 145.020 L 199.805 146.289 201.074 145.142 C 201.772 144.511,202.344 143.939,202.344 143.872 C 202.344 143.570,202.021 143.836,200.952 145.020 M127.327 147.754 C 128.946 149.479,129.297 149.789,129.297 149.495 C 129.297 149.433,128.462 148.598,127.441 147.640 L 125.586 145.898 127.327 147.754 M120.703 153.711 C 122.736 155.752,124.487 157.422,124.594 157.422 C 124.701 157.422,123.126 155.752,121.094 153.711 C 119.061 151.670,117.310 150.000,117.203 150.000 C 117.096 150.000,118.671 151.670,120.703 153.711 M195.880 154.395 L 194.336 156.055 195.996 154.511 C 197.540 153.075,197.836 152.734,197.540 152.734 C 197.476 152.734,196.729 153.481,195.880 154.395 M66.122 154.688 C 66.122 155.654,66.198 156.050,66.291 155.566 C 66.384 155.083,66.384 154.292,66.291 153.809 C 66.198 153.325,66.122 153.721,66.122 154.688 M144.922 156.055 C 146.306 157.451,147.526 158.594,147.634 158.594 C 147.741 158.594,146.697 157.451,145.313 156.055 C 143.928 154.658,142.708 153.516,142.601 153.516 C 142.493 153.516,143.538 154.658,144.922 156.055 M264.041 156.152 L 262.695 157.617 264.160 156.271 C 265.524 155.018,265.805 154.688,265.506 154.688 C 265.441 154.688,264.782 155.347,264.041 156.152 M188.074 157.910 L 185.742 160.352 188.184 158.020 C 190.451 155.854,190.804 155.469,190.515 155.469 C 190.455 155.469,189.356 156.567,188.074 157.910 M209.165 157.910 L 207.227 159.961 209.277 158.022 C 211.183 156.221,211.507 155.859,211.216 155.859 C 211.154 155.859,210.231 156.782,209.165 157.910 M211.516 168.457 L 207.617 172.461 211.621 168.562 C 213.823 166.418,215.625 164.616,215.625 164.558 C 215.625 164.276,215.137 164.738,211.516 168.457 M289.239 166.113 L 287.695 167.773 289.355 166.229 C 290.899 164.793,291.195 164.453,290.900 164.453 C 290.836 164.453,290.089 165.200,289.239 166.113 M251.733 168.457 L 250.586 169.727 251.855 168.579 C 252.554 167.948,253.125 167.377,253.125 167.310 C 253.125 167.008,252.803 167.274,251.733 168.457 M272.046 170.020 L 270.898 171.289 272.168 170.142 C 272.866 169.511,273.438 168.939,273.438 168.872 C 273.438 168.570,273.115 168.836,272.046 170.020 M262.096 175.293 L 259.961 177.539 262.207 175.404 C 264.294 173.420,264.632 173.047,264.342 173.047 C 264.281 173.047,263.270 174.058,262.096 175.293 M118.750 175.903 C 118.750 175.971,119.321 176.542,120.020 177.173 L 121.289 178.320 120.142 177.051 C 119.072 175.867,118.750 175.602,118.750 175.903 M276.739 178.223 L 275.195 179.883 276.855 178.339 C 278.399 176.903,278.695 176.563,278.400 176.563 C 278.336 176.563,277.589 177.310,276.739 178.223 M202.641 179.573 C 203.127 179.667,203.830 179.663,204.204 179.565 C 204.577 179.467,204.180 179.391,203.320 179.395 C 202.461 179.400,202.155 179.480,202.641 179.573 M201.953 183.716 C 201.953 183.783,202.524 184.354,203.223 184.986 L 204.492 186.133 203.345 184.863 C 202.275 183.680,201.953 183.414,201.953 183.716 M284.936 185.254 L 283.789 186.523 285.059 185.376 C 285.757 184.745,286.328 184.174,286.328 184.107 C 286.328 183.805,286.006 184.071,284.936 185.254 M268.927 186.035 L 267.383 187.695 269.043 186.151 C 270.587 184.715,270.883 184.375,270.587 184.375 C 270.523 184.375,269.776 185.122,268.927 186.035 M240.820 201.953 C 242.529 203.672,244.015 205.078,244.122 205.078 C 244.230 205.078,242.920 203.672,241.211 201.953 C 239.502 200.234,238.016 198.828,237.909 198.828 C 237.802 198.828,239.112 200.234,240.820 201.953 M195.313 207.617 C 197.776 210.088,199.880 212.109,199.987 212.109 C 200.095 212.109,198.167 210.088,195.703 207.617 C 193.239 205.146,191.136 203.125,191.028 203.125 C 190.921 203.125,192.849 205.146,195.313 207.617 M265.796 205.176 L 264.648 206.445 265.918 205.298 C 267.101 204.229,267.367 203.906,267.065 203.906 C 266.998 203.906,266.427 204.478,265.796 205.176 M252.930 207.422 C 254.422 208.926,255.731 210.156,255.838 210.156 C 255.946 210.156,254.813 208.926,253.320 207.422 C 251.828 205.918,250.519 204.688,250.412 204.688 C 250.304 204.688,251.437 205.918,252.930 207.422 M181.055 210.156 C 182.113 211.230,183.066 212.109,183.174 212.109 C 183.281 212.109,182.503 211.230,181.445 210.156 C 180.387 209.082,179.434 208.203,179.326 208.203 C 179.219 208.203,179.997 209.082,181.055 210.156 M238.477 214.063 C 241.048 216.641,243.240 218.750,243.347 218.750 C 243.455 218.750,241.439 216.641,238.867 214.063 C 236.296 211.484,234.104 209.375,233.997 209.375 C 233.889 209.375,235.905 211.484,238.477 214.063 M185.352 214.453 C 186.410 215.527,187.363 216.406,187.471 216.406 C 187.578 216.406,186.800 215.527,185.742 214.453 C 184.684 213.379,183.731 212.500,183.623 212.500 C 183.516 212.500,184.293 213.379,185.352 214.453 M200.391 212.622 C 200.391 212.689,200.962 213.261,201.660 213.892 L 202.930 215.039 201.782 213.770 C 200.713 212.586,200.391 212.320,200.391 212.622 M219.141 212.607 C 219.141 212.667,220.503 214.029,222.168 215.635 L 225.195 218.555 222.275 215.527 C 219.563 212.716,219.141 212.322,219.141 212.607 M209.570 215.625 C 210.409 216.484,211.184 217.188,211.291 217.188 C 211.399 217.188,210.800 216.484,209.961 215.625 C 209.122 214.766,208.347 214.063,208.240 214.063 C 208.132 214.063,208.731 214.766,209.570 215.625 M243.750 215.820 C 244.479 216.572,245.163 217.188,245.270 217.188 C 245.378 217.188,244.869 216.572,244.141 215.820 C 243.412 215.068,242.728 214.453,242.620 214.453 C 242.513 214.453,243.021 215.068,243.750 215.820 M73.242 218.359 C 74.081 219.219,74.856 219.922,74.963 219.922 C 75.071 219.922,74.472 219.219,73.633 218.359 C 72.794 217.500,72.019 216.797,71.912 216.797 C 71.804 216.797,72.403 217.500,73.242 218.359 M173.438 219.727 C 174.166 220.479,174.851 221.094,174.958 221.094 C 175.065 221.094,174.557 220.479,173.828 219.727 C 173.099 218.975,172.415 218.359,172.308 218.359 C 172.200 218.359,172.709 218.975,173.438 219.727 M181.445 223.438 C 183.370 225.371,185.033 226.953,185.140 226.953 C 185.247 226.953,183.761 225.371,181.836 223.438 C 179.911 221.504,178.249 219.922,178.141 219.922 C 178.034 219.922,179.521 221.504,181.445 223.438 M228.320 221.875 C 229.378 222.949,230.332 223.828,230.439 223.828 C 230.547 223.828,229.769 222.949,228.711 221.875 C 227.653 220.801,226.699 219.922,226.592 219.922 C 226.484 219.922,227.262 220.801,228.320 221.875 M83.789 228.906 C 88.512 233.633,92.464 237.500,92.571 237.500 C 92.679 237.500,88.903 233.633,84.180 228.906 C 79.457 224.180,75.505 220.313,75.397 220.313 C 75.290 220.313,79.066 224.180,83.789 228.906 M142.176 225.684 L 139.648 228.320 142.285 225.793 C 144.734 223.445,145.100 223.047,144.813 223.047 C 144.753 223.047,143.566 224.233,142.176 225.684 M154.297 232.227 C 158.052 235.986,161.212 239.063,161.320 239.063 C 161.427 239.063,158.443 235.986,154.688 232.227 C 150.932 228.467,147.772 225.391,147.665 225.391 C 147.557 225.391,150.542 228.467,154.297 232.227 M277.134 229.395 L 275.195 231.445 277.246 229.507 C 279.152 227.706,279.476 227.344,279.185 227.344 C 279.123 227.344,278.200 228.267,277.134 229.395 M157.796 229.395 C 159.415 231.119,159.766 231.429,159.766 231.136 C 159.766 231.073,158.931 230.238,157.910 229.281 L 156.055 227.539 157.796 229.395 M279.868 232.129 L 277.930 234.180 279.980 232.241 C 281.886 230.440,282.210 230.078,281.919 230.078 C 281.857 230.078,280.934 231.001,279.868 232.129 M185.531 232.129 C 187.149 233.854,187.500 234.164,187.500 233.870 C 187.500 233.808,186.665 232.973,185.645 232.015 L 183.789 230.273 185.531 232.129 M163.086 234.766 C 164.795 236.484,166.280 237.891,166.388 237.891 C 166.495 237.891,165.185 236.484,163.477 234.766 C 161.768 233.047,160.282 231.641,160.175 231.641 C 160.067 231.641,161.377 233.047,163.086 234.766 M211.719 235.278 C 211.719 235.346,212.290 235.917,212.988 236.548 L 214.258 237.695 213.111 236.426 C 212.041 235.242,211.719 234.977,211.719 235.278 M327.330 237.402 L 325.195 239.648 327.441 237.513 C 329.528 235.530,329.866 235.156,329.576 235.156 C 329.515 235.156,328.505 236.167,327.330 237.402 M99.023 244.141 C 102.025 247.148,104.570 249.609,104.677 249.609 C 104.784 249.609,102.416 247.148,99.414 244.141 C 96.412 241.133,93.868 238.672,93.760 238.672 C 93.653 238.672,96.021 241.133,99.023 244.141 M321.875 242.773 C 320.274 244.385,319.053 245.703,319.160 245.703 C 319.268 245.703,320.665 244.385,322.266 242.773 C 323.866 241.162,325.088 239.844,324.980 239.844 C 324.873 239.844,323.476 241.162,321.875 242.773 M274.593 247.754 C 276.212 249.479,276.563 249.789,276.563 249.495 C 276.563 249.433,275.728 248.598,274.707 247.640 L 272.852 245.898 274.593 247.754 M307.615 257.129 L 296.680 268.164 307.715 257.229 C 317.970 247.067,318.926 246.094,318.650 246.094 C 318.595 246.094,313.629 251.060,307.615 257.129 M134.570 248.828 C 135.409 249.688,136.184 250.391,136.291 250.391 C 136.399 250.391,135.800 249.688,134.961 248.828 C 134.122 247.969,133.347 247.266,133.240 247.266 C 133.132 247.266,133.731 247.969,134.570 248.828 M107.031 252.148 C 108.198 253.330,109.241 254.297,109.348 254.297 C 109.456 254.297,108.589 253.330,107.422 252.148 C 106.255 250.967,105.212 250.000,105.105 250.000 C 104.997 250.000,105.864 250.967,107.031 252.148 M209.766 250.903 C 209.766 250.971,210.337 251.542,211.035 252.173 L 212.305 253.320 211.157 252.051 C 210.088 250.867,209.766 250.602,209.766 250.903 M292.969 252.539 C 292.020 253.506,291.331 254.297,291.439 254.297 C 291.546 254.297,292.411 253.506,293.359 252.539 C 294.308 251.572,294.997 250.781,294.889 250.781 C 294.782 250.781,293.918 251.572,292.969 252.539 M158.203 259.570 C 157.254 260.537,156.566 261.328,156.673 261.328 C 156.781 261.328,157.645 260.537,158.594 259.570 C 159.543 258.604,160.231 257.813,160.124 257.813 C 160.016 257.813,159.152 258.604,158.203 259.570 M282.608 262.598 L 279.492 265.820 282.715 262.704 C 285.708 259.811,286.116 259.375,285.831 259.375 C 285.772 259.375,284.322 260.825,282.608 262.598 M153.699 264.160 L 151.367 266.602 153.809 264.270 C 155.151 262.988,156.250 261.889,156.250 261.829 C 156.250 261.540,155.864 261.892,153.699 264.160 M147.656 262.232 C 147.656 262.299,148.228 262.870,148.926 263.501 L 150.195 264.648 149.048 263.379 C 147.979 262.196,147.656 261.930,147.656 262.232 M157.799 266.699 L 155.664 268.945 157.910 266.810 C 159.997 264.827,160.335 264.453,160.045 264.453 C 159.984 264.453,158.973 265.464,157.799 266.699 M236.816 267.066 C 237.192 267.164,237.808 267.164,238.184 267.066 C 238.560 266.968,238.252 266.888,237.500 266.888 C 236.748 266.888,236.440 266.968,236.816 267.066 M292.358 272.363 L 291.211 273.633 292.480 272.486 C 293.179 271.854,293.750 271.283,293.750 271.216 C 293.750 270.914,293.428 271.180,292.358 272.363 M288.659 276.074 L 286.523 278.320 288.770 276.185 C 290.856 274.202,291.195 273.828,290.905 273.828 C 290.844 273.828,289.833 274.839,288.659 276.074 M256.250 278.320 C 258.283 280.361,260.033 282.031,260.141 282.031 C 260.248 282.031,258.673 280.361,256.641 278.320 C 254.608 276.279,252.857 274.609,252.750 274.609 C 252.642 274.609,254.217 276.279,256.250 278.320 M280.463 284.277 L 275.195 289.648 280.566 284.380 C 285.556 279.487,286.114 278.906,285.834 278.906 C 285.778 278.906,283.361 281.323,280.463 284.277 M124.993 289.551 C 127.245 291.860,129.135 293.750,129.192 293.750 C 129.474 293.750,128.998 293.249,125.098 289.446 L 120.898 285.352 124.993 289.551 M267.960 296.777 L 264.648 300.195 268.066 296.884 C 271.241 293.808,271.662 293.359,271.378 293.359 C 271.320 293.359,269.782 294.897,267.960 296.777 M136.133 300.781 C 139.780 304.434,142.853 307.422,142.960 307.422 C 143.068 307.422,140.171 304.434,136.523 300.781 C 132.876 297.129,129.804 294.141,129.696 294.141 C 129.589 294.141,132.485 297.129,136.133 300.781 M255.078 309.570 C 253.478 311.182,252.256 312.500,252.363 312.500 C 252.471 312.500,253.868 311.182,255.469 309.570 C 257.069 307.959,258.291 306.641,258.184 306.641 C 258.076 306.641,256.679 307.959,255.078 309.570 M230.077 334.668 L 208.398 356.445 230.176 334.767 C 242.153 322.844,251.953 313.044,251.953 312.990 C 251.953 312.715,250.228 314.425,230.077 334.668 M150.391 314.966 C 150.391 315.033,150.962 315.604,151.660 316.236 L 152.930 317.383 151.782 316.113 C 150.713 314.930,150.391 314.664,150.391 314.966 M164.063 328.711 C 164.791 329.463,165.476 330.078,165.583 330.078 C 165.690 330.078,165.182 329.463,164.453 328.711 C 163.724 327.959,163.040 327.344,162.933 327.344 C 162.825 327.344,163.334 327.959,164.063 328.711 M169.727 334.375 C 171.651 336.309,173.314 337.891,173.421 337.891 C 173.529 337.891,172.042 336.309,170.117 334.375 C 168.193 332.441,166.530 330.859,166.423 330.859 C 166.315 330.859,167.802 332.441,169.727 334.375 M202.332 362.402 L 199.805 365.039 202.441 362.511 C 203.892 361.121,205.078 359.934,205.078 359.875 C 205.078 359.587,204.680 359.953,202.332 362.402 " stroke="none" fill="#fac9c9" fill-rule="evenodd"></path></g></svg>